<svg id="download" xmlns="http://www.w3.org/2000/svg" width="62" height="62" viewBox="0 0 62 62">
  <g id="Group_27" data-name="Group 27">
    <path id="Path_9" data-name="Path 9" d="M31,0A31,31,0,1,0,62,31,31,31,0,0,0,31,0ZM22.933,21.774a2.194,2.194,0,0,1,3.1,0l2.748,2.748V12.912a2.2,2.2,0,0,1,4.39,0V24.67l.957-.957,1.94-1.939a2.193,2.193,0,0,1,3.71,1.939v0c-.009.049-.025.1-.037.145a2.032,2.032,0,0,1-.067.224c-.018.049-.039.1-.061.146a2.167,2.167,0,0,1-.117.223c-.023.039-.044.077-.07.114a2.222,2.222,0,0,1-.254.31L36.052,28l-3.429,3.429a2.187,2.187,0,0,1-1.552.642h-.032a2.187,2.187,0,0,1-1.552-.642L26.059,28l-3.124-3.124a2.149,2.149,0,0,1-.253-.309c-.026-.038-.048-.077-.071-.116a2.3,2.3,0,0,1-.116-.221c-.023-.049-.044-.1-.062-.148a2.275,2.275,0,0,1-.065-.218c-.013-.051-.03-.1-.039-.152A2.181,2.181,0,0,1,22.933,21.774ZM47.859,43.259h0c0,2.963-2.905,5.284-6.614,5.284H20.757c-3.709,0-6.614-2.321-6.614-5.284V29c0-2.5,2.079-4.544,4.961-5.117a5.368,5.368,0,0,0,1.557,3.272l.849.849h-.752c-1.5,0-2.326.748-2.326,1V43.259c0,.248.825,1,2.326,1H41.245c1.5,0,2.326-.748,2.326-1V29c0-.248-.825-1-2.326-1H40.6l.85-.85A5.364,5.364,0,0,0,43,23.9c2.827.6,4.856,2.623,4.856,5.1Z" fill="#3362c0"/>
  </g>
</svg>
