<svg id="github" xmlns="http://www.w3.org/2000/svg" width="62" height="62" viewBox="0 0 62 62">
  <g id="Group_28" data-name="Group 28">
    <path id="Path_10" data-name="Path 10" d="M158.173,352.6q-4.573.852-4,4.281t5.138,2.283q4.573-1.14,4-4Q162.742,352.028,158.173,352.6Z" transform="translate(-135.178 -352.51)" fill="#3362c0"/>
    <path id="Path_11" data-name="Path 11" d="M141.9,354.885c-3.046,0-4.568,1.041-4.568,3.139q0,3.711,4.853,3.138,4.569,0,4.57-3.138Q146.753,354.318,141.9,354.885Z" transform="translate(-120.504 -354.808)" fill="#3362c0"/>
    <path id="Path_12" data-name="Path 12" d="M119.629,354.022q-1.14,3.143,3.711,4.284,4.283,1.705,5.424-1.714.858-3.137-3.711-4.568C122.2,351.265,120.39,351.922,119.629,354.022Z" transform="translate(-104.797 -351.719)" fill="#3362c0"/>
    <path id="Path_13" data-name="Path 13" d="M58.589,3.41A11.2,11.2,0,0,0,50.375,0H11.625A11.2,11.2,0,0,0,3.41,3.41,11.2,11.2,0,0,0,0,11.625v38.75a11.2,11.2,0,0,0,3.41,8.214A11.2,11.2,0,0,0,11.625,62h9.042A10.917,10.917,0,0,0,22,61.94a1.563,1.563,0,0,0,.888-.526,1.88,1.88,0,0,0,.444-1.352q0-.12-.02-2.745t-.02-4.158l-.928.162a11.88,11.88,0,0,1-2.24.141,17.238,17.238,0,0,1-2.805-.282,6.289,6.289,0,0,1-2.7-1.21,5.123,5.123,0,0,1-1.776-2.482l-.4-.929A10.083,10.083,0,0,0,11.16,46.5,4.872,4.872,0,0,0,9.4,44.966l-.283-.2a2.968,2.968,0,0,1-.525-.485,2.243,2.243,0,0,1-.363-.565q-.121-.283.2-.465a2.624,2.624,0,0,1,1.171-.181l.807.121a5.885,5.885,0,0,1,2,.969,6.514,6.514,0,0,1,1.958,2.1,7.113,7.113,0,0,0,2.24,2.523,4.749,4.749,0,0,0,2.644.868,11.467,11.467,0,0,0,2.3-.2,8.036,8.036,0,0,0,1.816-.606,6.543,6.543,0,0,1,1.978-4.158,27.641,27.641,0,0,1-4.137-.727,16.489,16.489,0,0,1-3.794-1.574,10.863,10.863,0,0,1-3.25-2.7,13,13,0,0,1-2.119-4.238,20.159,20.159,0,0,1-.827-6.055,11.774,11.774,0,0,1,3.189-8.315,10.852,10.852,0,0,1,.282-8.234,5.656,5.656,0,0,1,3.471.545,24.343,24.343,0,0,1,3.37,1.554q1.07.645,1.716,1.09a29.143,29.143,0,0,1,15.5,0l1.534-.969A21.714,21.714,0,0,1,44,13.278a5.287,5.287,0,0,1,3.27-.444,10.745,10.745,0,0,1,.322,8.234,11.775,11.775,0,0,1,3.189,8.315,20.351,20.351,0,0,1-.827,6.075A12.471,12.471,0,0,1,47.813,39.7a11.287,11.287,0,0,1-3.269,2.684,16.467,16.467,0,0,1-3.795,1.574,27.621,27.621,0,0,1-4.137.728q2.1,1.816,2.1,5.731v9.647a2.6,2.6,0,0,0,.2,1.11,1.115,1.115,0,0,0,.646.585,3.577,3.577,0,0,0,.788.2,9.062,9.062,0,0,0,.989.041h9.042A11.646,11.646,0,0,0,62,50.373V11.625A11.2,11.2,0,0,0,58.589,3.41Z" fill="#3362c0"/>
    <path id="Path_14" data-name="Path 14" d="M86.793,319.2q-2,1.422.572,4.565,2.859,2.853,4.57.855,2-1.422-.575-4.569Q88.507,317.481,86.793,319.2Z" transform="translate(-74.95 -277.869)" fill="#3362c0"/>
    <path id="Path_15" data-name="Path 15" d="M77.374,312.057q-.855,2,2,3.426c1.521.955,2.762.767,3.711-.568q.855-2-2-3.433Q78.23,310.624,77.374,312.057Z" transform="translate(-21.281 -270.201)" fill="#3362c0"/>
    <path id="Path_16" data-name="Path 16" d="M95.646,330.331q-2.572,1.422,0,5.137t4.853,2q2.571-2,0-5.427C98.978,329.571,97.359,328.993,95.646,330.331Z" transform="translate(-82.415 -288.54)" fill="#3362c0"/>
    <path id="Path_17" data-name="Path 17" d="M105.641,343.174c-1.714,1.526-1.336,3.327,1.142,5.428q3.421,3.418,5.708.849,2.286-2.279-1.142-5.42Q107.928,340.611,105.641,343.174Z" transform="translate(-91.644 -299.504)" fill="#3362c0"/>
  </g>
</svg>
