<svg id="instagram" xmlns="http://www.w3.org/2000/svg" width="62.005" height="62.005" viewBox="0 0 62.005 62.005">
  <path id="Path_18" data-name="Path 18" d="M31.021,5.584c8.288,0,9.27.036,12.529.182a17,17,0,0,1,5.756,1.066,9.594,9.594,0,0,1,3.563,2.314,9.717,9.717,0,0,1,2.327,3.561,17.056,17.056,0,0,1,1.066,5.754c.145,3.27.182,4.252.182,12.525s-.036,9.266-.182,12.525a16.985,16.985,0,0,1-1.066,5.754,9.589,9.589,0,0,1-2.314,3.561,9.722,9.722,0,0,1-3.563,2.326,17.074,17.074,0,0,1-5.756,1.066c-3.272.145-4.253.182-12.529.182s-9.27-.036-12.529-.182a17,17,0,0,1-5.756-1.066,9.594,9.594,0,0,1-3.563-2.314,9.717,9.717,0,0,1-2.327-3.561,17.056,17.056,0,0,1-1.066-5.754C5.647,40.25,5.61,39.269,5.61,31s.036-9.266.182-12.525a16.985,16.985,0,0,1,1.066-5.754A9.589,9.589,0,0,1,9.173,9.157a9.722,9.722,0,0,1,3.563-2.326,17.074,17.074,0,0,1,5.756-1.066C21.751,5.62,22.732,5.584,31.021,5.584Zm0-5.584C22.6,0,21.545.036,18.237.182a22.674,22.674,0,0,0-7.525,1.441,15.141,15.141,0,0,0-5.5,3.585A15.193,15.193,0,0,0,1.624,10.7,22.715,22.715,0,0,0,.182,18.217C.036,21.536,0,22.59,0,31.008s.036,9.472.182,12.779a22.649,22.649,0,0,0,1.442,7.522,15.134,15.134,0,0,0,3.587,5.5A15.164,15.164,0,0,0,10.7,60.382a22.739,22.739,0,0,0,7.525,1.441c3.308.145,4.362.182,12.784.182s9.476-.036,12.784-.182a22.674,22.674,0,0,0,7.525-1.441,15.845,15.845,0,0,0,9.064-9.06A22.715,22.715,0,0,0,61.823,43.8c.145-3.307.182-4.361.182-12.779s-.036-9.472-.182-12.779a22.65,22.65,0,0,0-1.442-7.522,14.523,14.523,0,0,0-3.55-5.511,15.164,15.164,0,0,0-5.489-3.573A22.739,22.739,0,0,0,43.817.194C40.5.036,39.442,0,31.021,0h0Z" fill="#f2f2f2"/>
  <path id="Path_19" data-name="Path 19" d="M140.434,124.5a15.928,15.928,0,1,0,15.934,15.928A15.935,15.935,0,0,0,140.434,124.5Zm0,26.26a10.332,10.332,0,1,1,10.336-10.332A10.336,10.336,0,0,1,140.434,150.76Z" transform="translate(-109.414 -109.42)" fill="#f2f2f2"/>
  <path id="Path_20" data-name="Path 20" d="M369.44,92.319a3.72,3.72,0,1,1-3.72-3.719A3.719,3.719,0,0,1,369.44,92.319Z" transform="translate(-318.135 -77.868)" fill="#f2f2f2"/>
</svg>
