<svg xmlns="http://www.w3.org/2000/svg" width="82.865" height="82.765" viewBox="0 0 82.865 82.765">
  <path id="path0" d="M37-.033c0,.041-.071.056-.158.034-.115-.03-.154,0-.145.109s-.068.163-.36.206c-.407.061-.745.014-.745-.1,0-.041-.144-.052-.319-.024-.249.04-.33.022-.37-.082-.07-.181-.719-.189-.719-.009a.125.125,0,0,1-.124.124c-.15,0-.16.1-.025.232s.014.232-.363.3a.426.426,0,0,1-.487-.135c-.124-.129-.194-.156-.22-.085-.053.146-.273.129-.273-.021,0-.087-.087-.124-.29-.124s-.29.037-.29.124c0,.068-.037.124-.083.124a.083.083,0,0,0-.083.083c0,.046.054.083.119.083.39,0,.21.31-.205.352a1.249,1.249,0,0,0-.414.106,1.3,1.3,0,0,1-.447.1.643.643,0,0,0-.385.118c-.079.127-.324.026-.324-.133,0-.08-.076-.127-.207-.127-.114,0-.207.037-.207.083s-.093.083-.207.083-.207-.037-.207-.083-.13-.083-.29-.083-.29.037-.29.083a.083.083,0,0,0,.083.083c.046,0,.083.056.083.124a.125.125,0,0,0,.124.124c.069,0,.124.074.124.166,0,.192-.533.247-.608.062-.023-.057-.045,0-.048.124-.007.259-.441.343-.534.1a.176.176,0,0,0-.154-.118c-.083,0-.084.016,0,.048.241.1.111.359-.177.359-.179,0-.3.047-.331.13-.1.259-.5.113-.532-.192-.014-.148-.064-.269-.11-.269a.471.471,0,0,0-.32.325c0,.049-.056.089-.124.089s-.124.037-.124.083-.13.083-.29.083c-.2,0-.29.037-.29.124s-.078.124-.207.124-.207.035-.207.077-.084.089-.186.1c-.143.02-.192.089-.212.3-.022.223-.061.269-.228.269-.111,0-.2.037-.2.083s-.089.083-.2.083a.273.273,0,0,0-.246.124c-.026.068-.087.124-.136.124-.143,0-.2-.259-.074-.339.1-.063.1-.087-.009-.156-.2-.128-.331-.1-.331.075a.225.225,0,0,0,.1.2c.057.023-.036.045-.207.048S23,3.9,23,3.947s-.075.083-.166.083-.166.055-.166.124-.078.124-.207.124-.207.037-.207.083-.093.083-.207.083-.207.037-.207.083-.076.083-.168.083a.24.24,0,0,0-.216.124.235.235,0,0,1-.21.124c-.176,0-.4.182-.4.325,0,.049-.093.089-.207.089s-.207.037-.207.083-.056.083-.124.083a.125.125,0,0,0-.124.124c0,.068-.037.124-.083.124s-.083.168-.083.372.037.372.083.372.083.186.083.414c0,.313.03.414.124.414.077,0,.124.078.124.207s-.047.207-.124.207a.125.125,0,0,0-.124.124.143.143,0,0,0,.156.124.223.223,0,0,1,.2.166.22.22,0,0,0,.217.166c.162,0,.184.034.207.314a.275.275,0,0,0,.124.178.19.19,0,0,1-.114.336.14.14,0,0,1-.13-.145c0-.131-.014-.13-.124.016-.141.186-.167.957-.033.957a.461.461,0,0,0,.325-.331c0-.052.084-.083.186-.068.332.047.261.516-.083.549-.326.031-.369.282-.091.523.1.085.135.155.083.155-.142,0-.119.552.024.608.088.034.107.127.071.348a.409.409,0,0,0,.17.49.614.614,0,0,1,.219.365c0,.1.053.177.124.177.092,0,.124.1.124.367a.729.729,0,0,0,.083.419.729.729,0,0,1,.083.419c0,.359.153.506.292.281.1-.167.287.1.287.418a.618.618,0,0,0,.125.415c.091.075.1.133.037.21s-.061.122,0,.16c.139.086.1.278-.094.473a.937.937,0,0,0-.217.621c-.04.487.059.57.321.268.174-.2.435-.182.476.033a.343.343,0,0,1-.368.388c-.142,0-.2.046-.2.166,0,.091.037.166.083.166s.083.17.083.378a.83.83,0,0,0,.122.5.394.394,0,0,1,.071.374.373.373,0,0,0,.168.441.614.614,0,0,1,.219.365c0,.1.053.177.124.177.094,0,.124.1.124.414,0,.228.037.414.083.414s.083.186.083.414c0,.392.173.6.267.316.086-.257.312.022.312.385,0,.206.037.375.083.375s.083.2.083.455c0,.363-.027.455-.133.455-.084,0-.116.046-.085.124s.012.124-.033.124c-.251,0-.036.653.253.766.1.038.092.05-.022.055-.2.009-.2.465,0,.574.1.057.135.17.122.406a.551.551,0,0,0,.1.425c.082.068.1.2.075.426-.036.266-.018.328.091.328a.13.13,0,0,1,.135.124c0,.068.037.124.083.124s.083.076.083.168a.24.24,0,0,0,.124.216c.084.032.124.165.124.411,0,.2.037.364.083.364s.083.186.083.414c0,.392.173.6.267.316.08-.241.293.015.3.359,0,.2.044.37.093.386.164.055.1.347-.078.347-.091,0-.166-.04-.166-.088s-.037-.065-.083-.036a1.759,1.759,0,0,0-.03.952.883.883,0,0,0,.252-.215c.244-.263.441-.209.441.12,0,.246-.118.342-.421.342-.189,0-.209.21-.037.382a.4.4,0,0,1,.07.379c-.039.2-.014.285.1.369s.148.2.134.445c-.019.326.117.577.313.577.049,0,.089.093.089.207s.037.207.083.207.083.186.083.414c0,.313.03.414.124.414s.124.1.124.414c0,.228.037.414.083.414.12,0,.1.392-.021.445-.071.031-.045.088.083.183a.441.441,0,0,1,.186.246c0,.06.084.12.186.135a.3.3,0,0,1,.1.538c-.1.072-.158.255-.184.563-.042.5-.013.536.25.291.286-.266.494-.22.462.1-.023.237-.058.272-.3.295-.289.028-.4.361-.152.456.085.033.1.136.072.38-.035.261-.015.346.09.387s.135.153.135.385a.613.613,0,0,0,.207.525.632.632,0,0,1,.207.361c0,.093.037.169.083.169s.083.168.083.372c0,.276.032.372.124.372s.124.1.124.414c0,.377.1.556.184.316s.312.021.312.376c0,.221.042.382.106.407.188.072.167.786-.027.89-.091.049-.146.122-.121.162a.093.093,0,0,1-.039.125.878.878,0,0,0,0,.748c.048.03.175-.048.282-.172.245-.285.459-.226.459.126,0,.232-.022.251-.29.251-.3,0-.449.347-.191.433.062.021.092.178.079.421-.016.3.008.388.108.388.134,0,.157.074.13.405-.021.247.155.588.3.588.062,0,.11.09.11.207s.037.207.083.207.083.186.083.414c0,.313.03.414.124.414.077,0,.124.078.124.207s-.047.207-.124.207-.124.087-.124.29.037.29.124.29.124.106.124.459a.834.834,0,0,0,.166.636c.181.194.212.312.083.312a4.481,4.481,0,0,0-.083,1.324,4.481,4.481,0,0,0,.083,1.324c.149,0,.087.375-.083.5a.381.381,0,0,0-.166.225.1.1,0,0,1-.089.106c-.193,0-.325.25-.325.615,0,.214-.039.378-.089.378a.466.466,0,0,0-.325.325c0,.049-.056.089-.124.089s-.124.037-.124.083-.076.083-.168.083a.24.24,0,0,0-.216.124.23.23,0,0,1-.2.124c-.086,0-.157.037-.157.083s-.093.083-.207.083-.207.037-.207.083-.056.083-.124.083-.124-.037-.124-.083c0-.253-.653-.041-.767.25-.038.1-.05.092-.055-.022-.011-.232-.447-.189-.636.062-.174.232-.887.307-.975.1-.024-.057-.03,0-.012.124.037.264-.077.3-.221.068-.092-.148-.107-.149-.2-.021-.12.163-.321,0-.506-.42-.1-.219-.436-.331-.436-.145,0,.142-.206.091-.331-.083a.433.433,0,0,0-.308-.166c-.1,0-.189-.04-.189-.089a.466.466,0,0,0-.325-.325c-.049,0-.089-.093-.089-.207s-.037-.207-.083-.207-.083-.056-.083-.124a.125.125,0,0,0-.124-.124c-.07,0-.124-.074-.124-.172,0-.183-.179-.408-.325-.408-.049,0-.089-.093-.089-.207s-.037-.207-.083-.207-.083-.09-.083-.2a.3.3,0,0,0-.1-.248c-.083-.038-.083-.058,0-.1.113-.053.146-.614.036-.614a.7.7,0,0,0-.251.171c-.256.239-.469.179-.469-.131,0-.226.027-.25.311-.273s.454-.181.186-.181c-.078,0-.124-.079-.124-.215s-.054-.229-.166-.258a.231.231,0,0,1-.083-.4.191.191,0,0,0,.083-.145c0-.052-.049-.027-.109.055a.3.3,0,0,1-.269.118c-.211-.04-.263-.4-.078-.535s.273-.768.121-.862c-.071-.044-.1-.2-.091-.447.015-.295-.009-.378-.109-.378-.07,0-.128-.037-.128-.083a.083.083,0,0,0-.083-.083c-.046,0-.083.054-.083.119,0,.177-.156.241-.3.122a.637.637,0,0,0-.325-.113.644.644,0,0,1-.371-.192c-.132-.142-.264-.184-.582-.184-.447,0-.537.121-.245.331.319.23.169.557-.212.461-.158-.04-.2-.1-.2-.3,0-.208-.033-.247-.207-.247-.114,0-.207.037-.207.083s-.152.083-.337.083a.788.788,0,0,0-.459.121.391.391,0,0,1-.368.072.431.431,0,0,0-.464.168.721.721,0,0,1-.375.217.229.229,0,0,0-.2.124c-.033.084-.165.124-.412.124-.2,0-.364.037-.364.083s-.186.083-.414.083c-.313,0-.414.03-.414.124s-.1.124-.414.124c-.228,0-.414.037-.414.083s-.06.083-.133.083a1.582,1.582,0,0,0-.7.642c0,.044.093.149.207.235a.5.5,0,0,1,.207.3.222.222,0,0,0,.124.2c.087.034.124.169.124.453,0,.223.037.4.083.4s.083.165.083.367c0,.372.13.569.249.376.13-.21.33-.017.33.32a.653.653,0,0,0,.119.423c.179.148.061.335-.211.335-.325,0-.344.422-.033.711a.627.627,0,0,1,.207.32c0,.07.037.128.083.128s.083.093.083.207.037.207.083.207.083.132.083.292c0,.183.046.31.124.34a.229.229,0,0,1,.124.2c0,.086.037.157.083.157s.083.093.083.207.047.207.124.207.124.078.124.207.037.207.083.207.083.093.083.207.047.207.124.207.124.076.124.189a.433.433,0,0,0,.166.308.433.433,0,0,1,.166.308c0,.113.05.189.124.189s.124.04.124.089a.466.466,0,0,0,.325.325.086.086,0,0,0,.089-.083c0-.046.057-.083.127-.083a.191.191,0,0,1,.113.338c-.089.057-.078.074.05.075a3.7,3.7,0,0,1,1.458,1.586c.007.244.015.253.064.076a.375.375,0,0,1,.157-.235c.139-.046.228.218.112.333s-.121.226,0,.226a.466.466,0,0,1,.325.325c0,.049.093.089.207.089s.207.037.207.083.093.083.207.083.207.047.207.124.078.124.207.124.207.037.207.083.093.083.207.083.207.047.207.124a.146.146,0,0,0,.161.124.276.276,0,0,1,.212.083.5.5,0,0,0,.327.083c.169,0,.295.048.324.124a.223.223,0,0,0,.2.124.4.4,0,0,1,.269.166c.125.173.663.24.663.083a.086.086,0,0,1,.089-.083.466.466,0,0,1,.325.325c0,.053.2.089.5.089.387,0,.5-.028.5-.124s.147-.124.824-.124c.645,0,.839-.027.893-.124a1.378,1.378,0,0,1,1.2-.094c.181.18.257.169.354-.052.1-.237.951-.333.951-.108a.127.127,0,0,0,.124.128c.068,0,.124-.03.124-.066s.13-.051.29-.032c.225.026.29,0,.29-.1s.089-.133.414-.133c.228,0,.414-.037.414-.083s.13-.083.29-.083c.2,0,.29-.037.29-.124s.092-.124.331-.124c.182,0,.331-.037.331-.083s.13-.083.29-.083c.2,0,.29-.037.29-.124s.077-.124.2-.124a.3.3,0,0,0,.248-.1c.039-.083.058-.083.1,0,.057.122.7.141.7.021a.083.083,0,0,0-.083-.083c-.046,0-.083-.056-.083-.124a.125.125,0,0,0-.124-.124c-.071,0-.124-.075-.124-.175,0-.141.04-.168.2-.137s.212,0,.244-.125.091-.151.213-.119.171,0,.171-.072.084-.116.207-.116.207-.037.207-.083.075-.083.166-.083.166.037.166.083.093.083.207.083.207-.047.207-.124.074-.124.172-.124c.183,0,.408-.179.408-.325,0-.049.056-.089.124-.089s.124-.037.124-.083a.083.083,0,0,0-.083-.083c-.046,0-.083-.074-.083-.166,0-.238.309-.22.356.021.025.129.039.1.047-.094.01-.237.119-.385.715-.959a4.02,4.02,0,0,0,.707-.8c0-.156.2-.407.317-.407.052,0,.094-.077.094-.172,0-.389.337-.509.638-.227.149.14.215.159.291.083s.061-.1-.065-.1a.569.569,0,0,1-.449-.456c0-.175.219-.152.414.042.178.178.331.216.331.083,0-.046-.075-.083-.166-.083s-.166-.055-.166-.124a.125.125,0,0,0-.124-.124c-.069,0-.124-.074-.124-.166,0-.218.258-.218.456,0a.522.522,0,0,0,.22.166c.112,0,.081-.561-.034-.614-.083-.038-.083-.058,0-.1a.2.2,0,0,0,.1-.166.106.106,0,0,1,.089-.117c.166,0,.325-.236.325-.484,0-.136.047-.266.1-.289.081-.032.08-.043,0-.048-.445-.027-.518-.744-.108-1.06.11-.085.113-.114.018-.177a.132.132,0,0,1-.054-.172c.044-.072.1-.063.2.032.079.071.168.1.2.074.089-.088.064-.855-.027-.855a3.974,3.974,0,0,1-.083-1.242,3.974,3.974,0,0,1,.083-1.242c.3,0,.078-1.095-.29-1.453-.392-.381-.477-.675-.248-.865.173-.144.155-.248-.043-.248-.223,0-.372-.377-.253-.639.047-.1.131-.189.187-.189.079,0,.079-.022,0-.1-.138-.138-.124-.315.025-.315.087,0,.124-.087.124-.29s-.037-.29-.124-.29-.124-.1-.124-.407c0-.244-.04-.42-.1-.44s-.092-.165-.08-.371c.016-.276-.018-.368-.19-.5a.539.539,0,0,1-.21-.339c0-.1-.037-.174-.083-.174s-.083-.169-.083-.375c0-.257-.039-.39-.124-.423s-.124-.165-.124-.411c0-.391-.013-.407-.249-.281-.19.1-.268,0-.309-.407a.943.943,0,0,0-.118-.4.256.256,0,0,1-.04-.231c.062-.162.3-.163.3,0,0,.068.037.124.083.124s.083-.056.083-.124-.037-.124-.083-.124-.083-.13-.083-.29-.037-.29-.083-.29-.083-.056-.083-.124.037-.124.083-.124.083-.168.083-.372-.037-.372-.083-.372a.083.083,0,0,0-.083.083c0,.046-.056.083-.124.083s-.124.037-.124.083-.075.083-.166.083c-.128,0-.166-.055-.166-.239,0-.244.119-.34.421-.34a.145.145,0,0,0,.159-.166c0-.092-.055-.166-.124-.166-.094,0-.124-.1-.124-.414,0-.228-.037-.414-.083-.414s-.083-.17-.083-.378c0-.365-.133-.615-.325-.615-.049,0-.089-.093-.089-.207s-.037-.207-.083-.207-.083-.186-.083-.414c0-.313-.03-.414-.124-.414s-.124-.1-.124-.414c0-.228-.037-.414-.083-.414a.083.083,0,0,0-.083.083c0,.326-.322.04-.373-.331-.031-.228-.084-.414-.118-.414-.127,0-.085-.835.044-.884a.128.128,0,0,0,.081-.161c-.024-.062-.008-.113.037-.113.116,0,.1-.56-.019-.6-.062-.021-.092-.178-.079-.421.016-.3-.008-.388-.108-.388s-.128-.1-.128-.414c0-.228-.037-.414-.083-.414s-.083-.154-.083-.342a.617.617,0,0,0-.207-.534.632.632,0,0,1-.207-.361c0-.093-.037-.169-.083-.169s-.083-.168-.083-.372c0-.276-.032-.372-.124-.372s-.124-.1-.124-.414c0-.42-.053-.493-.232-.315-.15.15-.263-.014-.286-.413-.011-.19-.067-.364-.124-.386-.272-.106-.043-.376.317-.376.133,0,.159-.06.159-.372,0-.411-.1-.471-.337-.2-.174.2-.435.182-.476-.033a.343.343,0,0,1,.368-.388c.142,0,.2-.046.2-.166,0-.091-.037-.166-.083-.166s-.083-.17-.083-.378a.83.83,0,0,0-.122-.5.394.394,0,0,1-.071-.374.373.373,0,0,0-.168-.441.614.614,0,0,1-.219-.365c0-.1-.053-.177-.124-.177-.094,0-.124-.1-.124-.414,0-.228-.037-.414-.083-.414s-.083-.169-.083-.375c0-.257-.039-.39-.124-.423a.273.273,0,0,1-.124-.246c0-.121.048-.2.124-.2a.12.12,0,0,0,.124-.115c0-.063-.065-.11-.145-.1s-.155-.057-.171-.175C32.607,21.05,32.544,21,32.4,21a.336.336,0,0,1-.245-.079c-.083-.134.05-.5.181-.5.076,0,.106-.048.076-.124s-.012-.124.033-.124.08-.168.08-.372c0-.409-.128-.489-.331-.207-.23.319-.557.168-.462-.212.04-.158.1-.2.3-.2.258,0,.379-.356.147-.433-.061-.02-.092-.165-.08-.367a.557.557,0,0,0-.1-.432c-.082-.068-.1-.2-.075-.426.036-.266.018-.328-.091-.328a.13.13,0,0,1-.135-.124c0-.068-.037-.124-.083-.124s-.083-.076-.083-.168a.24.24,0,0,0-.124-.216c-.084-.032-.124-.165-.124-.411,0-.2-.037-.364-.083-.364s-.083-.186-.083-.414c0-.392-.173-.6-.267-.316-.08.239-.293-.014-.3-.352a.719.719,0,0,0-.082-.4c-.154-.1-.1-.831.07-1s.241-.99.08-.99a.083.083,0,0,0-.083.083.089.089,0,0,1-.094.083.322.322,0,0,0-.2.138c-.154.211-.39.08-.358-.2.023-.2.067-.231.337-.254.342-.028.439-.267.17-.417-.1-.058-.135-.17-.121-.42.02-.337-.07-.509-.32-.606-.1-.038-.092-.05.022-.055.232-.011.189-.447-.062-.635a.517.517,0,0,1-.207-.343c0-.111-.05-.187-.124-.187a.125.125,0,0,1-.124-.124c0-.068.039-.124.086-.124a.641.641,0,0,0,.269-.17.42.42,0,0,1,.34-.129c.118.031.134.017.063-.054-.2-.2-.11-.393.19-.393a.517.517,0,0,0,.336-.083.276.276,0,0,1,.212-.083c.205,0,.218.3.016.36-.08.023,0,.02.186-.006a.816.816,0,0,0,.4-.139c.049-.065.081-.062.111.012.05.122.608.141.608.021,0-.046.186-.083.414-.083.313,0,.414-.03.414-.124s.1-.124.379-.124c.365,0,.615-.132.615-.325,0-.049.056-.089.124-.089a.125.125,0,0,1,.124.124c0,.087.087.124.29.124s.29-.037.29-.124a.121.121,0,0,1,.117-.124.2.2,0,0,0,.166-.1c.039-.083.058-.083.1,0,.121.259,1.029.064,1.029-.222,0-.049.056-.089.124-.089a.125.125,0,0,1,.124.124c0,.1.11.124.5.124.3,0,.5-.035.5-.089,0-.177.243-.325.532-.325.163,0,.3.037.3.083a2.648,2.648,0,0,0,.994.083,2.648,2.648,0,0,0,.994-.083c0-.046.093-.083.207-.083s.207-.037.207-.083.221-.083.5-.083.5.037.5.083.093.083.207.083.207.037.207.083a2.648,2.648,0,0,0,.994.083,2.648,2.648,0,0,0,.994-.083c0-.046.133-.083.3-.083.289,0,.532.148.532.325,0,.053.2.089.5.089.387,0,.5-.028.5-.124a.125.125,0,0,1,.124-.124c.068,0,.124.04.124.089,0,.193.25.325.615.325.208,0,.379-.037.379-.083a.086.086,0,0,1,.089-.083A.466.466,0,0,1,47.686,8c0,.049.13.089.29.089.254,0,.29-.026.29-.207,0-.242.162-.242.3,0,.09.153.1.154.154.021.031-.08.088-.145.127-.145a2.117,2.117,0,0,1,.657.665c0,.044.093.08.207.08.181,0,.207-.036.207-.29,0-.276.014-.29.29-.29.235,0,.29.031.29.166,0,.092-.055.166-.124.166a.125.125,0,0,0-.124.124c0,.068-.037.124-.083.124a.083.083,0,0,0-.083.083c0,.123.807.1.852-.021.03-.083.06-.083.148,0a.652.652,0,0,0,.374.1c.159,0,.284.05.312.124s.152.124.3.124.251.037.251.083.13.083.29.083.29.037.29.083.056.083.124.083.124.04.124.089c0,.146.225.325.408.325.1,0,.172.054.172.124,0,.087.087.124.29.124s.29-.037.29-.124a.124.124,0,0,1,.248,0c0,.077.078.124.207.124s.207.037.207.083.093.083.207.083.207.047.207.124.077.125.186.126a.764.764,0,0,1,.434.29.818.818,0,0,0,.393.288c.08,0,.146.037.146.083s.093.083.207.083.207.047.207.124a.125.125,0,0,0,.124.124c.087,0,.124-.087.124-.29,0-.346.326-.446.338-.1,0,.1.025.14.048.083a.179.179,0,0,1,.332.029c.032.084-.032.2-.176.327-.306.263-.211.364.334.357.392,0,.482.025.641.21a.6.6,0,0,0,.328.216c.078,0,.142.037.142.083s.077.083.172.083c.183,0,.408.179.408.325,0,.049.093.089.207.089s.207.037.207.083.056.083.124.083a.125.125,0,0,1,.124.124c0,.074.076.124.187.124a.518.518,0,0,1,.343.207.5.5,0,0,0,.274.207.974.974,0,0,1,.392.29.929.929,0,0,0,.415.29c.138,0,.378.184.378.29s.246.29.408.29c.1,0,.172.054.172.124s.039.124.086.124a1.7,1.7,0,0,1,.448.372A1.652,1.652,0,0,0,64,15.7c.05,0,.09.056.09.124s.074.124.166.124.166.037.166.083.056.083.124.083.124.04.124.089a.466.466,0,0,0,.325.325.089.089,0,0,1,.089.089.466.466,0,0,0,.325.325.088.088,0,0,1,.089.086,1.049,1.049,0,0,0,.493.493.088.088,0,0,1,.087.089.466.466,0,0,0,.325.325c.049,0,.089.056.089.124s.037.124.083.124.083.061.083.136a1.21,1.21,0,0,0,.579.609.087.087,0,0,1,.084.09,1.126,1.126,0,0,0,.29.371.981.981,0,0,1,.29.413.442.442,0,0,0,.325.368.089.089,0,0,1,.089.089.466.466,0,0,0,.325.325c.049,0,.089.077.089.172,0,.183.179.408.325.408.049,0,.089.093.089.207s.037.207.083.207a.086.086,0,0,1,.083.089.466.466,0,0,0,.325.325c.049,0,.089.093.089.207s.037.207.083.207.083.093.083.207.04.207.089.207c.146,0,.325.225.325.408,0,.1.054.172.124.172a.125.125,0,0,1,.124.124c0,.068.037.124.083.124s.083.074.083.166c0,.185.086.212.226.072a.2.2,0,1,1,0,.27c-.156-.156-.226-.107-.226.161s.157.491.325.491c.049,0,.089.056.089.124s.078.124.207.124c.15,0,.207.044.207.161a.276.276,0,0,0,.083.212.276.276,0,0,1,.083.212.146.146,0,0,0,.124.161c.077,0,.124.078.124.207s.037.207.083.207.083.093.083.207.047.207.124.207.124.087.124.29c0,.159.037.29.083.29s.083.093.083.207.037.207.083.207.083.076.083.168a.24.24,0,0,0,.124.216c.076.029.124.155.124.324a.5.5,0,0,0,.083.327.276.276,0,0,1,.083.212.146.146,0,0,0,.124.161.124.124,0,1,1,0,.248c-.087,0-.124.087-.124.29,0,.328.145.383.331.124s.5-.219.5.074c0,.137-.053.26-.124.287a.176.176,0,0,0-.118.154c0,.083.016.084.048,0a.225.225,0,0,1,.2-.1c.2,0,.229.475.035.549a.208.208,0,0,0-.124.179c0,.109.019.1.112-.022.172-.235.4-.105.371.208a.35.35,0,0,0,.089.323.174.174,0,0,1,.064.2c-.058.15-.3.182-.3.04,0-.064-.038-.061-.124.01a.6.6,0,0,0-.005.71.448.448,0,0,1,.074.4c-.054.334.03.4.374.3.294-.084.308-.072.386.341a.426.426,0,0,1-.119.477c-.175.174-.175.175-.008.237s.16.067-.039.217c-.262.2-.261.45,0,.7.214.2.264.343.123.343-.046,0-.083.17-.083.378,0,.365.133.615.325.615.049,0,.089.056.089.124a.125.125,0,0,1-.124.124c-.1,0-.124.12-.124.579s.026.579.124.579a.125.125,0,0,1,.124.124c0,.068.037.124.083.124s.083.13.083.29-.037.29-.083.29a16.308,16.308,0,0,0-.083,2.607,19.128,19.128,0,0,0,.078,2.607c.043,0,.089.158.1.352.016.227.062.345.129.331.174-.035.115.157-.062.2s-.237.272-.083.272a.083.083,0,0,1,.083.083c0,.046-.056.083-.124.083s-.124-.037-.124-.083-.056-.083-.124-.083c-.09,0-.124.092-.124.331s.035.331.124.331c.2,0,.146.319-.083.531a.818.818,0,0,0-.1.953c.083.088.083.117,0,.148a.176.176,0,0,0-.1.155.124.124,0,0,1-.129.117c-.224,0-.122.532.109.564.205.029.261.263.062.263-.141,0-.167.13-.041.207.323.2-.042.811-.456.764-.123-.014-.172.037-.19.2-.022.192,0,.21.212.179.267-.039.464.134.419.367-.041.214-.282.229-.5.031-.266-.248-.318-.215-.318.2,0,.2.037.372.083.372s.083.056.083.124-.037.124-.083.124-.083.13-.083.29-.037.29-.083.29-.083.149-.083.331c0,.239-.035.331-.124.331s-.124.083-.124.254a.7.7,0,0,1-.29.527c-.356.336-.357.361-.021.393.237.023.272.058.3.295.031.323-.276.389-.481.1a.382.382,0,0,0-.225-.166c-.152,0-.136.49.018.549.191.073.158.3-.034.239-.216-.068-.306.107-.141.272.087.087.134.1.134.034,0-.125.219-.133.294-.011a.159.159,0,0,1-.037.182.394.394,0,0,0-.092.244.224.224,0,0,1-.124.2.232.232,0,0,0-.124.207c0,.179-.262.321-.312.169s-.168-.116-.155.042c.008.091-.083.167-.258.219-.205.06-.269.126-.269.274,0,.107-.037.195-.083.195-.145,0-.089.145.073.187.194.051.237.705.051.776a.13.13,0,0,0-.064.173.207.207,0,0,1-.078.223.478.478,0,0,0-.16.257c-.043.224-.271.207-.3-.023-.018-.125.016-.186.1-.186.178,0,.163-.1-.04-.274-.242-.207-.319-.114-.308.374.006.262-.028.44-.088.46a.164.164,0,0,0-.1.15c0,.065-.037.117-.083.117s-.083.093-.083.207-.047.207-.124.207-.124.074-.124.166-.037.166-.083.166-.083.056-.083.124a.125.125,0,0,1-.124.124c-.074,0-.124.076-.124.187a.517.517,0,0,1-.207.343.5.5,0,0,0-.207.309c0,.085-.037.154-.083.154s-.083.056-.083.124-.037.124-.083.124-.083.057-.083.127a1.147,1.147,0,0,1-.331.442,1.12,1.12,0,0,0-.331.452c0,.075-.037.137-.083.137s-.083.056-.083.124-.04.124-.089.124c-.146,0-.325.225-.325.408,0,.094-.04.172-.089.172-.1,0-.325.2-.325.29s-.229.29-.325.29a.089.089,0,0,0-.089.089.466.466,0,0,1-.325.325c-.049,0-.089.075-.089.166a2.264,2.264,0,0,1-.58.739,3.515,3.515,0,0,0-.58.662.089.089,0,0,1-.088.089,2.739,2.739,0,0,0-.581.5,2.229,2.229,0,0,1-.616.5c-.068,0-.123.037-.123.083s-.056.083-.124.083-.124.04-.124.089a.466.466,0,0,1-.325.325.089.089,0,0,0-.089.089.466.466,0,0,1-.325.325.086.086,0,0,0-.089.083c0,.046-.061.083-.136.083-.275,0-.731.608-.512.681.175.058,0,.335-.182.288-.09-.024-.165-.006-.165.04,0,.2-.579.667-.705.563-.1-.083-.123-.078-.123.031,0,.371-.452.591-.577.28-.074-.183-.075-.183-.08.027a.649.649,0,0,1-.158.372c-.119.125-.133.192-.062.307s.062.166-.034.226-.089.079-.021.08.1.091.1.2.038.213.084.228c.157.052.135.819-.026.909-.079.044-.123.116-.1.159s.009.078-.04.078-.088.13-.088.29c0,.2.037.29.124.29s.124.1.124.378c0,.371.088.54.333.636.1.038.092.05-.022.055-.192.009-.213.586-.021.586.093,0,.124.1.124.4s.04.424.166.515a.4.4,0,0,1,.166.269.223.223,0,0,0,.124.2c.082.032.125.164.127.391,0,.348.145.633.317.633a.089.089,0,0,1,.094.083c0,.046.168.083.373.083s.373-.037.373-.083.08-.083.177-.083a.637.637,0,0,0,.369-.207.664.664,0,0,1,.3-.21c.148,0,.4-.2.4-.317,0-.052.077-.094.172-.094.183,0,.408-.179.408-.325,0-.049.093-.089.207-.089s.207-.037.207-.083.056-.083.124-.083.124-.037.124-.083.075-.083.166-.083.166-.055.166-.124.04-.124.089-.124a.466.466,0,0,0,.325-.325c0-.049.093-.089.207-.089s.207-.037.207-.083.056-.083.124-.083.124-.04.124-.089c0-.146.225-.325.408-.325.094,0,.172-.04.172-.089,0-.1.2-.325.29-.325s.29-.229.29-.325c0-.049.077-.089.172-.089a1.788,1.788,0,0,0,.822-.742.088.088,0,0,1,.09-.086,1.652,1.652,0,0,0,.452-.372,1.381,1.381,0,0,1,.492-.372.206.206,0,0,0,.177-.124c.026-.068.084-.124.128-.124.09,0,.317-.208.317-.29s.229-.29.325-.29a.089.089,0,0,0,.089-.089c0-.1.2-.325.29-.325s.29-.229.29-.325a.089.089,0,0,1,.089-.089.442.442,0,0,0,.325-.368A.981.981,0,0,1,72,69.05a1.126,1.126,0,0,0,.29-.371.088.088,0,0,1,.085-.09,3.429,3.429,0,0,0,.992-1.026c0-.073.037-.133.083-.133a.086.086,0,0,0,.083-.089c0-.1.2-.325.29-.325.115,0,.29-.246.29-.408,0-.1.054-.172.124-.172a.116.116,0,0,0,.124-.1c0-.058.093-.174.207-.26a.5.5,0,0,0,.207-.309c0-.085.037-.154.083-.154s.083-.056.083-.124.04-.124.089-.124a.441.441,0,0,0,.325-.372.441.441,0,0,1,.325-.372c.049,0,.089-.093.089-.207s.037-.207.083-.207.083-.056.083-.124a.125.125,0,0,1,.124-.124c.069,0,.124-.074.124-.166s.037-.166.083-.166.083-.052.083-.115a.2.2,0,0,1,.124-.163.24.24,0,0,0,.124-.216.147.147,0,0,1,.166-.168c.091,0,.166-.037.166-.083s.056-.083.124-.083a.125.125,0,0,0,.124-.124c0-.068.037-.124.083-.124s.083-.221.083-.5c0-.474.009-.5.207-.5.114,0,.207-.037.207-.083s.056-.083.124-.083A.125.125,0,0,0,78,61.265c0-.068.037-.124.083-.124a.083.083,0,0,0,.083-.083c0-.046-.057-.083-.127-.083a.2.2,0,0,1-.174-.124.2.2,0,0,0-.163-.124c-.063,0-.115-.074-.115-.166,0-.218.258-.218.456,0,.158.175.373.222.373.083,0-.046-.066-.083-.147-.083a.578.578,0,0,1-.433-.456c0-.149.3-.166.359-.02.033.081.043.08.048,0a.176.176,0,0,0-.118-.154c-.157-.06-.164-.361-.008-.361.075,0,.1-.058.073-.165a.163.163,0,0,1,.091-.216.276.276,0,0,0,.134-.249c0-.115.049-.2.117-.2s.1-.058.073-.165c-.071-.274.209-.309.428-.054.256.3.376.275.376-.071,0-.159.037-.29.083-.29s.083-.089.083-.2a.273.273,0,0,1,.124-.246.188.188,0,0,0,0-.354.2.2,0,0,1-.124-.163.12.12,0,0,1,.124-.115.146.146,0,0,0,.124-.161.276.276,0,0,1,.083-.212.516.516,0,0,0,.083-.336c0-.157.04-.285.089-.285a.466.466,0,0,0,.325-.325.086.086,0,0,1,.083-.089c.214,0,.051-.158-.186-.181a.289.289,0,0,1-.062-.573c.114-.032.16-.061.1-.066-.182-.014-.129-.5.055-.5a.225.225,0,0,1,.2.1c.026.065.044.053.048-.032a.2.2,0,0,0-.118-.184c-.161-.062-.161-.458,0-.519.077-.029.124-.155.124-.329,0-.346.171-.372.452-.07.227.245.308.171.279-.257-.014-.213.021-.324.122-.38.268-.15.176-.4-.148-.4-.276,0-.29-.014-.29-.29,0-.337.155-.383.414-.124s.331.2.331-.253c0-.255-.032-.4-.082-.368s-.061,0-.033-.078,0-.128-.084-.128-.133-.075-.133-.241c0-.393.074-.514.257-.416.123.066.157.056.157-.043,0-.07-.037-.127-.083-.127-.1,0-.113-.439-.021-.531a.225.225,0,0,0,.062-.134c0-.04.075-.129.166-.2.148-.112.15-.125.021-.128-.263,0-.121-.83.143-.83.152,0,.17-.219.023-.273-.081-.03-.082-.061,0-.145s.111-.081.154.031c.082.214.284.166.284-.066,0-.148-.035-.191-.124-.157s-.124-.019-.124-.251c0-.2.038-.3.115-.3.315,0,.295-1.516-.021-1.6-.09-.024-.074-.039.051-.046.206-.011.275-.38.083-.444a9.8,9.8,0,0,1-.012-3.539c.083,0,.115-.115.115-.414s-.032-.414-.115-.414a9.724,9.724,0,0,1,.012-3.539c.115-.038.144-.269.034-.269-.038,0-.04-.177,0-.393.162-.984.069-1.489-.257-1.386s-.492-.7-.207-.981c.173-.173.155-.3-.043-.3-.314,0-.415-.662-.119-.776.177-.068.148-.217-.042-.217-.338,0-.435-.5-.154-.8.134-.143.149-.192.058-.192s-.113-.074-.089-.28c.018-.154-.008-.305-.058-.336a.7.7,0,0,1-.091-.424c0-.271-.033-.367-.124-.367A.12.12,0,0,1,81.4,30.4a.2.2,0,0,1,.124-.163c.19-.073.145-.4-.084-.62a.64.64,0,0,1-.206-.352.144.144,0,0,0-.124-.157c-.09,0-.124-.092-.124-.331,0-.182-.037-.331-.083-.331s-.083-.13-.083-.29c0-.2-.037-.29-.124-.29s-.124-.087-.124-.29c0-.159-.037-.29-.083-.29s-.083-.149-.083-.331-.037-.331-.083-.331-.083-.076-.083-.168a.24.24,0,0,0-.124-.216c-.077-.029-.124-.155-.124-.329,0-.154-.037-.281-.083-.281s-.083-.076-.083-.168a.24.24,0,0,0-.124-.216c-.077-.029-.124-.155-.124-.329,0-.154-.037-.281-.083-.281s-.083-.093-.083-.207-.047-.207-.124-.207-.124-.078-.124-.207-.037-.207-.083-.207-.083-.093-.083-.207-.047-.207-.124-.207-.124-.078-.124-.207-.037-.207-.083-.207-.083-.074-.083-.166-.037-.166-.083-.166-.083-.093-.083-.207-.047-.207-.124-.207-.124-.078-.124-.207-.037-.207-.083-.207S78,21.732,78,21.618s-.047-.207-.124-.207-.124-.078-.124-.207S77.715,21,77.669,21s-.083-.093-.083-.207-.04-.207-.089-.207c-.146,0-.325-.225-.325-.408,0-.1-.054-.172-.124-.172s-.124-.076-.124-.189a.433.433,0,0,0-.166-.308.433.433,0,0,1-.166-.308c0-.113-.05-.189-.124-.189a.125.125,0,0,1-.124-.124c0-.068-.037-.124-.083-.124s-.083-.069-.083-.154a.5.5,0,0,0-.207-.309.517.517,0,0,1-.207-.343c0-.1-.04-.187-.089-.187-.136,0-.325-.22-.325-.378a.625.625,0,0,0-.207-.333.663.663,0,0,1-.21-.3c0-.148-.2-.4-.317-.4a.092.092,0,0,1-.094-.089.466.466,0,0,0-.325-.325c-.049,0-.089-.077-.089-.172,0-.183-.179-.408-.325-.408a.1.1,0,0,1-.089-.106.381.381,0,0,0-.166-.225.391.391,0,0,1-.166-.255.5.5,0,0,0-.207-.291c-.114-.085-.207-.2-.207-.26a.1.1,0,0,0-.089-.1.466.466,0,0,1-.325-.325.089.089,0,0,0-.089-.089c-.1,0-.325-.2-.325-.29s-.229-.29-.325-.29c-.049,0-.089-.077-.089-.172,0-.183-.179-.408-.325-.408a.089.089,0,0,1-.089-.089.466.466,0,0,0-.325-.325.089.089,0,0,1-.089-.089.466.466,0,0,0-.325-.325.088.088,0,0,1-.089-.086,1.049,1.049,0,0,0-.493-.493c-.048,0-.087-.056-.087-.124s-.074-.124-.172-.124c-.183,0-.408-.179-.408-.325a.089.089,0,0,0-.089-.089.466.466,0,0,1-.325-.325.089.089,0,0,0-.089-.089c-.1,0-.325-.2-.325-.3S68.2,9.5,68.041,9.5c-.08,0-.145-.04-.145-.085s-.056-.083-.124-.083-.124-.04-.124-.089a.466.466,0,0,0-.325-.325.089.089,0,0,1-.089-.089c0-.146-.225-.325-.408-.325-.094,0-.172-.04-.172-.089a.475.475,0,0,0-.317-.325c-.044,0-.1-.056-.128-.124a.223.223,0,0,0-.2-.124.4.4,0,0,1-.269-.166.382.382,0,0,0-.225-.166.116.116,0,0,1-.106-.124c0-.069-.074-.124-.166-.124s-.166-.037-.166-.083-.056-.083-.124-.083a.125.125,0,0,1-.124-.124c0-.074-.076-.124-.187-.124a.518.518,0,0,1-.343-.207.5.5,0,0,0-.291-.207.391.391,0,0,1-.255-.166.425.425,0,0,0-.3-.166.253.253,0,0,1-.228-.124.24.24,0,0,0-.216-.124c-.093,0-.168-.037-.168-.083s-.056-.083-.124-.083a.125.125,0,0,1-.124-.124c0-.077-.078-.124-.207-.124s-.207-.037-.207-.083-.075-.083-.166-.083a.147.147,0,0,1-.167-.145.648.648,0,0,0-.207-.34l-.206-.195v.3c0,.263-.024.3-.207.3-.123,0-.207-.047-.207-.116s-.058-.1-.165-.073a.164.164,0,0,1-.212-.081.162.162,0,0,0-.207-.083.163.163,0,0,1-.211-.092.232.232,0,0,0-.2-.133c-.224,0-.292-.174-.118-.3.083-.061.129-.133.1-.161s-.117.028-.2.123c-.206.24-.359.217-.367-.054,0-.125-.025-.181-.048-.124-.06.148-.359.128-.359-.024a.6.6,0,0,1,.166-.305c.181-.194.212-.312.083-.312-.046,0-.083.057-.083.127a.2.2,0,0,1-.124.174.2.2,0,0,0-.124.163c0,.063-.075.115-.166.115a.145.145,0,0,1-.166-.153.5.5,0,0,1,.166-.3c.23-.208.209-.372-.046-.372-.117,0-.19.036-.163.079.1.154-.053.5-.214.5-.124,0-.157-.061-.157-.29,0-.159.037-.29.083-.29a.083.083,0,0,0,.083-.083c0-.117-.277-.1-.408.021-.088.083-.117.083-.148,0-.021-.057-.128-.1-.238-.1s-.2-.037-.2-.083-.056-.083-.124-.083-.124-.04-.124-.089c0-.093-.2-.325-.284-.325-.026,0-.047.089-.047.2a.343.343,0,0,1-.388.368c-.215-.041-.233-.3-.033-.476.253-.219.212-.337-.117-.337-.2,0-.29.037-.29.124a.125.125,0,0,1-.124.124c-.068,0-.124-.038-.124-.084a1.663,1.663,0,0,0-.527-.579c-.029,0-.053.13-.053.29,0,.276-.014.29-.29.29-.183,0-.29-.04-.29-.108s-.09-.1-.29-.074c-.343.04-.422-.266-.124-.481s.21-.359-.162-.309c-.225.03-.358.007-.424-.072a.55.55,0,0,0-.65-.012c-.088.083-.117.083-.148,0-.021-.057-.128-.1-.238-.1s-.2-.037-.2-.083-.056-.083-.124-.083a.125.125,0,0,1-.124-.124c0-.191-.543-.161-.745.041a.482.482,0,0,1-.85-.362c.039-.2.021-.217-.258-.217s-.3.024-.3.207c0,.242-.162.242-.3,0-.09-.153-.1-.154-.154-.021-.039.1-.146.144-.358.144-.37,0-.531-.094-.464-.267.16-.418-.711-.662-1-.279-.161.215-.337.231-.467.045-.063-.09-.093-.094-.125-.015-.059.145-.277.129-.277-.021,0-.068.037-.124.083-.124a.083.083,0,0,0,.083-.083c0-.1-.454-.107-.808-.006-.166.048-.269.048-.269,0,0-.128-.431-.086-.532.053A7.552,7.552,0,0,1,42.081.07c-.072-.276-1.639-.276-1.711,0A6.858,6.858,0,0,1,37.284.02C37.182-.12,37-.154,37-.033M59.613,3.74c0,.068.037.124.083.124s.083-.056.083-.124-.037-.124-.083-.124-.083.056-.083.124m.745.439a.4.4,0,0,1-.1.248c-.158.158-.027.115.17-.055s.233-.342.054-.342a.139.139,0,0,0-.124.149m.414.265c0,.091-.043.166-.1.166s-.071.025-.04.056c.052.052.386-.244.386-.342,0-.025-.056-.045-.124-.045s-.124.074-.124.166M16.791,7.754c0,.046-.076.083-.168.083a.24.24,0,0,0-.216.124.188.188,0,0,1-.149.124c-.056,0-.151.093-.212.207a.378.378,0,0,1-.268.207c-.172,0-.394.184-.394.325a.089.089,0,0,1-.089.089.466.466,0,0,0-.325.325c0,.049-.078.089-.173.089a1.242,1.242,0,0,0-.535.372,1.7,1.7,0,0,1-.448.372.085.085,0,0,0-.086.083c0,.2-.666.745-.911.745q-.248,0-.248.124c0,.068-.039.124-.087.124a4.06,4.06,0,0,0-.7.617,4.058,4.058,0,0,0-.617.7c0,.048-.056.087-.124.087-.083,0-.124.083-.124.254,0,.253-.157.491-.325.491a.089.089,0,0,0-.089.089.466.466,0,0,1-.325.325.089.089,0,0,0-.089.088,1.091,1.091,0,0,1-.29.361.937.937,0,0,0-.29.408c0,.074-.037.135-.083.135s-.083.056-.083.124-.04.124-.089.124a.466.466,0,0,0-.325.325.089.089,0,0,1-.089.089c-.142,0-.325.222-.325.394a.378.378,0,0,1-.207.268c-.114.061-.207.156-.207.212a.188.188,0,0,1-.124.149.223.223,0,0,0-.124.2.4.4,0,0,1-.166.269.381.381,0,0,0-.166.225.116.116,0,0,1-.124.106c-.07,0-.124.074-.124.172,0,.183-.179.408-.325.408-.049,0-.089.084-.089.187a.517.517,0,0,1-.207.343.5.5,0,0,0-.207.309c0,.085-.037.154-.083.154s-.083.056-.083.124-.037.124-.083.124-.083.093-.083.207-.047.207-.124.207-.124.074-.124.166-.037.166-.083.166-.083.056-.083.124A.125.125,0,0,1,5.568,20c-.077,0-.124.078-.124.207s-.037.207-.083.207-.083.093-.083.207c0,.166-.041.207-.207.207-.114,0-.207.037-.207.083A.089.089,0,0,1,4.77,21c-.1,0-.312.24-.317.352,0,.034.072.062.163.062s.169.047.174.1.034.01.066-.1c.072-.258.289-.271.325-.021.017.119-.017.186-.092.186s-.106.064-.079.207,0,.207-.087.207-.112.054-.083.165a.163.163,0,0,1-.091.216.276.276,0,0,0-.134.249c0,.115-.049.2-.117.2s-.1.058-.073.165a.163.163,0,0,1-.091.216.236.236,0,0,0-.134.208.145.145,0,0,1-.166.157c-.091,0-.166-.037-.166-.083a.082.082,0,0,0-.08-.083c-.044,0-.059.056-.033.124a.2.2,0,0,0,.163.124c.063,0,.115.074.115.166,0,.117-.055.166-.189.166a.433.433,0,0,1-.308-.166c-.225-.312-.319-.2-.316.38a1.493,1.493,0,0,1-.089.637.39.39,0,0,0-.092.241c0,.082-.037.149-.083.149s-.083.093-.083.207-.047.207-.124.207-.124.087-.124.29c0,.159-.037.29-.083.29s-.083.056-.083.124-.04.124-.089.124a.471.471,0,0,0-.325.32c0,.046.121.1.269.109.305.029.451.432.192.532-.083.032-.13.152-.13.331,0,.328-.158.372-.414.115-.239-.239-.331-.2-.331.124a.659.659,0,0,0,.166.455c.231.231.236.828.006.828a.212.212,0,0,1-.2-.145c-.032-.121-.04-.118-.048.022a.713.713,0,0,1-.258.372c-.345.285-.335.561.021.595.224.022.274.064.3.254.038.331-.2.393-.437.115-.28-.326-.376-.277-.376.2a.73.73,0,0,0,.171.584c.243.243.2.707-.067.679-.216-.023-.242.078-.059.229.112.093.1.134-.1.346-.151.158-.181.222-.086.185.2-.075.195.171,0,.294-.1.066-.116.1-.041.135.2.084.024.857-.194.857-.064,0-.116.037-.116.083a.083.083,0,0,0,.083.083c.046,0,.083.056.083.124a.125.125,0,0,1-.124.124c-.068,0-.124-.037-.124-.083S.17,34.241.1,34.241c-.09,0-.122.085-.115.31.005.171.027.243.048.161s.082-.134.135-.115c.147.052.065.491-.115.617A3.987,3.987,0,0,0,.01,37.235,6.5,6.5,0,0,1,.06,40.341c-.264.069-.252,1.637.013,1.707A6.941,6.941,0,0,1,.041,45.07c-.346.413-.126,2.375.233,2.077.273-.226.426.761.159,1.028-.172.172-.155.3.039.3a.335.335,0,0,1,.256.173c.116.216.035.572-.13.572a.124.124,0,0,0-.123.124c0,.076.077.124.2.124.211,0,.3.136.3.462,0,.11.033.2.072.2s.1.156.128.348a1.285,1.285,0,0,0,.144.454.257.257,0,0,1,.04.232c-.062.162-.3.163-.3,0,0-.068-.037-.124-.083-.124s-.083.056-.083.124.037.124.083.124.083.13.083.29.037.29.083.29.083.056.083.124-.037.124-.083.124c-.158,0-.091.537.083.662a.4.4,0,0,1,.166.269.223.223,0,0,0,.124.2c.077.029.124.155.124.329,0,.154.037.281.083.281s.083.132.083.292c0,.183.046.31.124.34s.124.155.124.329c0,.154.037.281.083.281s.083.056.083.124-.037.124-.083.124-.083.13-.083.29.037.29.083.29.083.062.083.137a1.12,1.12,0,0,0,.331.452,1.155,1.155,0,0,1,.331.44c0,.1.06.113.248.076.234-.047.248-.035.248.212,0,.156.05.28.124.309a.273.273,0,0,1,.124.246c0,.109.037.2.083.2s.083.057.083.127c0,.154-.244.263-.319.143-.035-.056-.088-.049-.154.022-.118.127.072.34.221.249.052-.032.087.032.087.158s.046.212.124.212.124.078.124.207.037.207.083.207.083.093.083.207.047.207.124.207.124.078.124.207.037.207.083.207.083.093.083.207.037.207.083.207.083.076.083.168a.24.24,0,0,0,.124.216.273.273,0,0,1,.124.246c0,.109.037.2.083.2s.083.069.083.154a.5.5,0,0,0,.207.309.517.517,0,0,1,.207.343c0,.111.05.187.124.187s.124.074.124.172c0,.183.179.408.325.408.049,0,.089.093.089.207s.037.207.083.207.083.056.083.124.037.124.083.124.083.074.083.166.055.166.124.166a.125.125,0,0,1,.124.124c0,.068.037.124.083.124s.083.069.083.154a.5.5,0,0,0,.207.309.517.517,0,0,1,.207.343c0,.1.04.187.089.187a.44.44,0,0,1,.325.375,1.575,1.575,0,0,0,.414.544,1.877,1.877,0,0,1,.417.509c0,.123.2.394.282.394s.3.226.3.325c0,.049.056.089.124.089s.124.074.124.169a2.618,2.618,0,0,0,.907.989.088.088,0,0,1,.087.089.466.466,0,0,0,.325.325c.049,0,.089.056.089.124s.037.124.083.124.083.093.083.207.04.207.089.207c.1,0,.325.2.325.29a.591.591,0,0,0,.29.29c.086,0,.29.229.29.325a.089.089,0,0,0,.089.089.466.466,0,0,1,.325.325.1.1,0,0,0,.1.089c.058,0,.175.093.26.207a.5.5,0,0,0,.271.207c.212,0,.607.486.607.748s.051.3.285.119c.14-.106.143-.121.021-.121-.085,0-.14-.065-.14-.166,0-.261.218-.2.622.184.37.348.5.751.274.828a.085.085,0,0,0-.034.135.192.192,0,0,0,.213.054.306.306,0,0,1,.277.079.459.459,0,0,0,.18.127c.086,0,.29.229.29.325,0,.049.077.089.171.089a.9.9,0,0,1,.445.29.9.9,0,0,0,.45.29c.1,0,.177.04.177.089a.466.466,0,0,0,.325.325c.049,0,.089.056.089.124s.076.124.189.124a.433.433,0,0,1,.308.166.433.433,0,0,0,.308.166c.1,0,.189.04.189.089,0,.146.225.325.408.325.1,0,.172.054.172.124a.125.125,0,0,0,.124.124c.068,0,.124.037.124.083s.093.083.207.083.207.047.207.124.074.124.166.124.166.037.166.083.056.083.124.083.124.037.124.083.093.083.207.083.207.047.207.124.078.124.207.124c.154,0,.207.044.207.172,0,.158.174.408.284.408.026,0,.048-.084.049-.186a.678.678,0,0,1,.075-.3.191.191,0,0,1,.338.1c0,.078.066.1.207.076s.207,0,.207.086.054.112.165.083a.163.163,0,0,1,.216.091.276.276,0,0,0,.25.133c.109,0,.2.035.2.077s.081.089.18.1c.259.038.265.161.019.426-.119.128-.188.258-.155.289s.077.014.1-.039c.075-.207.427-.543.514-.489.125.077.117.354-.012.406-.081.033-.081.043,0,.048a.176.176,0,0,0,.154-.118.186.186,0,0,1,.361.041c0,.091-.037.166-.083.166s-.083.056-.083.124-.037.124-.083.124a.083.083,0,0,0-.083.083c0,.247.4.071.43-.186.017-.172.07-.269.15-.269.154,0,.22.453.079.54-.121.075-.031.246.129.246a.29.29,0,0,0,.2-.145c.083-.138.091-.138.174,0a.325.325,0,0,0,.248.145c.089,0,.162.037.162.083s.056.083.124.083.124.04.124.089a.466.466,0,0,0,.325.325c.049,0,.089-.13.089-.29,0-.267.019-.29.251-.29.342,0,.395.195.122.448-.122.113-.2.245-.169.293.081.132.457.1.511-.037.072-.187.237-.149.361.083.061.114.16.207.221.207s.11.037.11.083c0,.214.158.051.181-.186a.289.289,0,0,1,.573-.062c.032.114.061.16.066.1.015-.188.505-.127.505.062,0,.091-.037.166-.083.166s-.083.056-.083.124-.037.124-.083.124a.083.083,0,0,0-.083.083c0,.046.186.083.414.083.313,0,.414.03.414.124,0,.179.465.163.576-.021.083-.138.091-.138.174,0a.325.325,0,0,0,.248.145c.089,0,.162.037.162.083s.056.083.124.083a.13.13,0,0,1,.124.135c0,.177.652.1.793-.088.24-.328.943-.014.822.366-.052.162-.03.175.262.151.275-.023.315-.051.3-.215-.022-.2.24-.14.344.084.039.083.058.084.1,0,.111-.237.7-.123.751.145.027.137.1.248.164.248s.114.037.114.083.168.083.373.083.373-.037.373-.083.056-.083.124-.083a.125.125,0,0,0,.124-.124c0-.183.174-.151.224.041.043.166.19.234.19.088,0-.176.347-.185.53-.013a.728.728,0,0,0,.531.173c.241,0,.347.035.347.115,0,.193.106.2,3.614.172,3.483-.027,3.987-.059,4.063-.256.05-.131.57-.156.647-.031a.158.158,0,0,0,.3-.062c0-.086.023-.1.048-.041s.169.1.325.1c.2,0,.283.038.283.124s.11.124.5.124c.3,0,.5-.035.5-.089a.466.466,0,0,1,.325-.325.086.086,0,0,1,.089.083c0,.046.17.083.379.083.46,0,.7-.181.549-.419-.114-.183-.065-.221.384-.292.277-.044.353-.028.4.084s.113.126.291.086c.147-.032.238-.018.238.037,0,.139.493.105.642-.044.123-.122.118-.145-.059-.278-.15-.113-.168-.16-.08-.214.2-.126.689-.135.778-.014a.93.93,0,0,0,.737.307c.387,0,.448-.132.172-.369s-.226-.459.126-.459c.232,0,.251.022.251.29,0,.3.347.448.433.191.021-.062.178-.091.421-.079.45.023.5-.081.169-.363-.278-.239-.215-.452.133-.452.168,0,.251.041.251.124a.129.129,0,0,0,.145.118c.087,0,.1-.023.041-.048-.256-.1-.111-.378.181-.344.227.026.293,0,.326-.125s.1-.15.292-.122c.159.023.266,0,.292-.073.1-.271.544-.125.544.18,0,.159.04.29.089.29a.466.466,0,0,0,.325-.325c0-.049.053-.089.117-.089a.2.2,0,0,0,.166-.1c.039-.083.058-.083.1,0,.053.113.614.146.614.036a.666.666,0,0,0-.166-.245.6.6,0,0,1-.166-.305c0-.153.3-.173.359-.024.023.057.045,0,.048-.133.006-.221.026-.234.3-.2.2.023.29,0,.29-.074s.089-.108.2-.108a.273.273,0,0,0,.246-.124.24.24,0,0,1,.216-.124c.1,0,.168-.055.168-.127,0-.166.247-.258.33-.123.1.166.249.016.249-.254,0-.142-.052-.266-.124-.294s-.124-.164-.124-.411c0-.2-.037-.364-.083-.364s-.083-.173-.083-.384a.64.64,0,0,0-.207-.575.627.627,0,0,1-.207-.32c0-.07-.037-.128-.083-.128s-.083-.186-.083-.414c0-.313-.03-.414-.124-.414s-.124-.1-.124-.414c0-.45-.009-.462-.246-.313-.207.129-.23.1-.264-.349a.885.885,0,0,0-.108-.43.913.913,0,0,1,.006-.869c.16-.118.269-.853.126-.853-.057,0-.094-.161-.094-.414s-.037-.414-.089-.414a.412.412,0,0,1-.213-.124c-.068-.068-.084-.124-.036-.124.162,0,.1-.535-.077-.662a.4.4,0,0,1-.166-.269.223.223,0,0,0-.124-.2c-.087-.034-.124-.169-.124-.453,0-.223-.037-.4-.083-.4s-.083-.165-.083-.367c0-.372-.13-.569-.249-.376-.129.208-.33.017-.33-.313a.75.75,0,0,0-.094-.411.751.751,0,0,1,.056-.9.764.764,0,0,0,.2-.621c0-.438-.123-.526-.331-.236-.23.319-.557.168-.462-.212.04-.158.1-.2.3-.2.208,0,.247-.032.247-.207,0-.114-.037-.207-.083-.207s-.083-.152-.083-.337a.786.786,0,0,0-.122-.458.391.391,0,0,1-.072-.367.43.43,0,0,0-.168-.463.721.721,0,0,1-.218-.372.142.142,0,0,0-.124-.154c-.094,0-.124-.1-.124-.414,0-.228-.037-.414-.083-.414s-.083-.186-.083-.414c0-.392-.173-.6-.267-.316-.08.239-.293-.014-.3-.352a.707.707,0,0,0-.084-.4,1.436,1.436,0,0,1-.108-.774.147.147,0,0,1,.127-.145c.126,0,.214-.246.216-.6,0-.148-.043-.228-.123-.228s-.124-.1-.124-.383-.044-.421-.178-.538c-.1-.085-.135-.155-.083-.155.14,0,.12-.552-.022-.606-.086-.033-.1-.136-.072-.381.037-.274.02-.336-.09-.336a.13.13,0,0,1-.135-.124c0-.068-.037-.124-.083-.124s-.083-.076-.083-.168a.24.24,0,0,0-.124-.216c-.084-.032-.124-.164-.124-.406a.7.7,0,0,0-.083-.41.729.729,0,0,1-.083-.419c0-.376-.111-.472-.313-.27-.138.138-.2.042-.244-.364a1.291,1.291,0,0,0-.1-.436,1.085,1.085,0,0,1,.041-.905c.194-.142.26-.775.088-.841-.1-.037-.135-.156-.135-.415,0-.2-.037-.364-.083-.364s-.083-.173-.083-.384a.64.64,0,0,0-.207-.575.627.627,0,0,1-.207-.322c0-.078-.1-.15-.248-.18-.19-.038-.248-.095-.248-.24a.51.51,0,0,0-.124-.315c-.239-.238-.161-.633.124-.633.141,0,.251.045.254.1s.047.019.1-.085c.118-.246.25-.195.344.133.075.263.631.416.631.174a.412.412,0,0,1,.124-.213c.068-.068.124-.084.124-.036s.13.089.29.089.29-.037.29-.083.168-.083.373-.083c.276,0,.373-.032.373-.124a.125.125,0,0,1,.124-.124c.068,0,.124-.037.124-.083s.093-.083.207-.083.207-.037.207-.083.169-.083.375-.083c.257,0,.39-.039.423-.124s.165-.124.412-.124c.369,0,.439-.058.272-.225-.144-.144-.021-.252.359-.317a1.8,1.8,0,0,0,.5-.152c.177-.109.308.035.31.341,0,.235.444.269.569.045.056-.1.168-.136.38-.121.422.028.492-.046.252-.268-.3-.282-.271-.462.083-.462.276,0,.29.014.29.29,0,.159.037.29.083.29s.083-.056.083-.124.04-.124.089-.124a.452.452,0,0,0,.325-.325c0-.049.149-.089.331-.089s.331-.037.331-.083.075-.083.166-.083.166-.037.166-.083.093-.083.207-.083.207-.047.207-.124S60.851,45,60.98,45s.207-.037.207-.083.093-.083.207-.083.207-.047.207-.124.078-.124.207-.124.207-.037.207-.083.093-.083.207-.083.207-.04.207-.089c0-.146.225-.325.408-.325.1,0,.172-.054.172-.124s.078-.124.207-.124.207-.037.207-.083.056-.083.124-.083.124-.037.124-.083.075-.083.166-.083S64,43.373,64,43.3s.04-.124.089-.124a.466.466,0,0,0,.325-.325.089.089,0,0,1,.089-.089.466.466,0,0,0,.325-.325c0-.049.056-.089.124-.089s.124-.037.124-.083.055-.083.123-.083a.578.578,0,0,0,.457-.432c0-.081.037-.147.083-.147s.083-.056.083-.124.04-.124.089-.124a.466.466,0,0,0,.325-.325.089.089,0,0,1,.089-.089.466.466,0,0,0,.325-.325c0-.049.056-.089.124-.089s.124-.074.124-.166.037-.166.083-.166.083-.056.083-.124.037-.124.083-.124.083-.093.083-.207.047-.207.124-.207.124-.078.124-.207.037-.207.083-.207.083-.071.083-.157a.229.229,0,0,1,.124-.2.235.235,0,0,0,.124-.211.28.28,0,0,1,.083-.214A.516.516,0,0,0,68.061,38c0-.2.038-.285.124-.285s.124-.087.124-.29c0-.159.037-.29.083-.29s.083-.186.083-.414.037-.414.083-.414.083-.13.083-.29c0-.2.037-.29.124-.29a.125.125,0,0,0,.124-.124c0-.068.037-.124.083-.124s.083-.221.083-.5-.037-.5-.083-.5a3.272,3.272,0,0,1-.083-1.117,3.272,3.272,0,0,1,.083-1.117c.047,0,.083-.237.083-.544,0-.53-.1-.78-.325-.78-.136,0-.105-.39.035-.444.085-.032.124-.166.124-.423,0-.278-.032-.375-.124-.375s-.124-.11-.124-.5c0-.276-.037-.5-.083-.5s-.083-.17-.083-.378c0-.365-.133-.615-.325-.615-.049,0-.089-.093-.089-.207s-.037-.207-.083-.207S67.9,27.156,67.9,27c0-.183-.046-.31-.124-.34s-.124-.155-.124-.329c0-.154-.037-.281-.083-.281s-.083-.13-.083-.29c0-.2-.037-.29-.124-.29s-.124-.078-.124-.207-.037-.207-.083-.207-.083-.056-.083-.124.037-.124.083-.124c.118,0,.1-.263-.033-.435a.409.409,0,0,0-.287-.145c-.132,0-.177-.051-.177-.2,0-.11-.042-.214-.094-.231s-.09-.216-.083-.5c.012-.519-.073-.591-.338-.286-.141.162-.145.19-.03.213a.176.176,0,0,1-.034.346.145.145,0,0,1-.166-.157.233.233,0,0,0-.13-.207.178.178,0,0,1-.1-.194.493.493,0,0,0-.347-.436c-.046,0-.083-.074-.083-.166s.052-.166.115-.166a.2.2,0,0,0,.163-.124.2.2,0,0,1,.174-.124c.07,0,.127-.037.127-.083,0-.129-.118-.1-.312.083a.394.394,0,0,1-.682-.267c0-.081-.031-.147-.069-.147s-.119-.093-.18-.207-.16-.207-.221-.207-.11-.074-.11-.165a1.549,1.549,0,0,0-.418-.584c-.4-.406-.492-.711-.233-.81.161-.062-.039-.179-.306-.179-.157,0-.285-.04-.285-.089,0-.146-.225-.325-.408-.325-.128,0-.172-.053-.172-.207,0-.129-.047-.207-.124-.207s-.124-.04-.124-.089c0-.093-.2-.325-.284-.325-.026,0-.047.057-.047.127a.2.2,0,0,1-.124.174c-.2.078-.141.176.083.133.168-.032.207-.007.207.136a.2.2,0,0,1-.373.092.276.276,0,0,0-.212-.083c-.118,0-.162-.06-.167-.228,0-.125-.025-.181-.048-.124-.06.148-.359.128-.359-.024a.6.6,0,0,1,.166-.305c.233-.25.208-.312-.124-.312-.159,0-.29.037-.29.083s-.056.083-.124.083-.124-.037-.124-.083-.13-.083-.29-.083-.29-.037-.29-.083c0-.12-.394-.1-.437.021-.024.068-.1.032-.211-.1-.144-.17-.175-.181-.178-.062-.006.314-1,.124-1-.191,0-.366-1.248-.624-1.378-.285-.037.1-.2.124-.713.124-.494,0-.689.032-.757.124a1.459,1.459,0,0,1-1.23.093c-.186-.185-.3-.168-.327.052-.034.238-.979.342-.979.108a.127.127,0,0,0-.124-.128.148.148,0,0,0-.124.163c0,.318-.586.455-.759.177-.081-.129-.127-.14-.26-.062s-.17.071-.2-.008c-.048-.133-.579-.136-.623,0-.02.061-.165.092-.367.08a.558.558,0,0,0-.432.1c-.068.082-.2.1-.427.074-.266-.036-.328-.018-.328.091s-.086.135-.407.135c-.242,0-.421.04-.44.1s-.178.091-.421.079-.388.015-.388.072c0,.149-.223.329-.408.329-.1,0-.172.054-.172.124,0,.094-.1.124-.414.124-.228,0-.414.037-.414.083s-.186.083-.414.083c-.313,0-.414.03-.414.124,0,.077-.078.124-.207.124s-.207-.046-.207-.131-.047-.116-.1-.1a.168.168,0,0,0-.1.152c0,.065-.084.129-.186.144-.135.019-.186.082-.186.228,0,.191-.072.238-.312.207a.15.15,0,0,0-.147.1c-.076.2-.757.171-.9-.036l-.125-.178-.08.2-.08.2-.005-.228c-.006-.261-.462-.345-.555-.1-.032.084-.164.124-.407.124a.705.705,0,0,0-.41.083.73.73,0,0,1-.419.083c-.272,0-.368.032-.368.124s-.1.124-.379.124c-.365,0-.615.132-.615.325,0,.049-.093.089-.207.089s-.207.037-.207.083-.186.083-.414.083S38,21.035,38,21.08s-.169.083-.375.083c-.257,0-.39.039-.423.124s-.164.124-.407.124a.705.705,0,0,0-.41.083.276.276,0,0,1-.212.083.146.146,0,0,0-.161.124.125.125,0,0,1-.124.124c-.087,0-.124.087-.124.29s.037.29.124.29.124.1.124.414c0,.228.037.414.083.414s.083.093.083.207-.037.207-.083.207-.083.056-.083.124.045.115.1.1.139.063.185.166a.309.309,0,0,0,.233.186.217.217,0,0,1,.194.145,2.025,2.025,0,0,0,.108.269c.123.242.1.912-.033.963-.183.07-.153.179.061.22.16.031.154.037-.041.047-.245.012-.354.535-.128.61.062.02.092.167.08.379-.016.265.009.346.107.346s.128.1.128.414c0,.228.037.414.083.414s.083.056.083.124a.125.125,0,0,0,.124.124c.077,0,.124.078.124.207s.037.207.083.207.083.168.083.372.037.372.083.372.083.165.083.367c0,.372.13.569.249.376.139-.224.33-.014.33.363,0,.236.041.382.115.41.178.068.129.768-.065.909a.746.746,0,0,0-.194.53c-.049.515.076.627.348.31.245-.285.482-.228.444.107-.022.19-.071.232-.3.254-.277.027-.407.37-.17.449.062.021.092.178.079.421-.016.3.008.388.108.388s.128.092.128.378c0,.365.133.615.325.615.049,0,.089.093.089.207s.037.207.083.207.083.186.083.414.037.414.083.414.083.168.083.372c0,.358.152.513.288.293.119-.192.292.026.292.368a.658.658,0,0,0,.125.457c.091.075.1.133.037.21s-.062.122,0,.16c.136.084.1.277-.081.46l-.168.168.188.076c.182.073.181.076-.04.081-.261.006-.346.462-.1.555.084.032.124.165.124.411,0,.2.037.364.083.364s.083.186.083.414c0,.313.03.414.124.414s.124.1.124.4.04.424.166.515a.433.433,0,0,1,.166.308c0,.113.05.189.124.189.094,0,.124.1.124.414,0,.228.037.414.083.414s.083.165.083.367c0,.372.13.569.249.376.139-.225.33-.014.33.364,0,.2.042.382.094.4.2.068.159.893-.048.893-.121,0-.208.251-.21.6,0,.148.043.228.123.228s.124.1.124.407c0,.244.04.42.1.44s.092.164.08.366c-.016.272.019.361.19.49a.519.519,0,0,1,.21.345c0,.1.037.187.083.187s.083.169.083.375c0,.257.039.39.124.423s.124.165.124.411c0,.392.013.407.249.281.19-.1.268,0,.309.407a1.015,1.015,0,0,0,.1.376c.127.163.1.851-.034.9-.184.071-.151.2.062.243.16.031.154.037-.041.047-.231.011-.374.756-.145.756a.083.083,0,0,0,.083-.083c0-.046.056-.083.124-.083s.124-.037.124-.083.075-.083.166-.083c.128,0,.166.055.166.239,0,.244-.119.34-.421.34a.145.145,0,0,0-.159.166c0,.092.055.166.124.166.094,0,.124.1.124.407,0,.242.04.42.1.44s.092.178.079.421.015.388.072.388c.15,0,.329.223.329.408,0,.094.037.172.083.172s.083.169.083.375c0,.257.039.39.124.423s.124.169.124.453c0,.378.088.515.207.322.13-.21.277-.062.331.331.031.228.086.414.121.414.136,0,.088.818-.053.9-.092.051-.148.226-.174.541-.042.5.015.56.294.3s.449-.217.418.1c-.023.237-.058.272-.3.295-.288.028-.423.429-.145.429.094,0,.124.1.124.414,0,.228.037.414.083.414s.083.154.083.342a.617.617,0,0,0,.207.534.629.629,0,0,1,.207.315.224.224,0,0,0,.083.174.729.729,0,0,1,.083.419c0,.271.033.368.124.368s.124.1.124.414c0,.42.053.493.232.315.15-.15.263.014.286.413.011.19.062.362.113.382.149.058.131.777-.022.862s-.267.843-.123.843c.057,0,.094.161.094.414,0,.313.03.414.124.414s.124.1.124.4.04.424.166.515a.4.4,0,0,1,.166.269.223.223,0,0,0,.124.2c.087.034.124.169.124.453,0,.223.037.4.083.4s.083.165.083.367c0,.372.13.569.249.376.139-.225.33-.014.33.364,0,.2.037.381.081.4s.1.19.113.389a.824.824,0,0,0,.113.414c.14.091.125.837-.017.892-.168.064-.158.175.02.221.109.029.1.04-.041.048-.106.005-.186.063-.186.134,0,.277-.34.484-.761.465-.394-.018-.647.105-.647.315,0,.135-.224.106-.279-.035-.083-.218-.664-.161-.848.083-.156.208-.365.279-.365.124,0-.046-.208-.083-.462-.083-.447,0-.7.117-.7.325,0,.049-.149.089-.331.089-.239,0-.331-.035-.331-.124s-.166-.124-.994-.124-.994.021-.994.124c0,.077-.078.124-.207.124s-.207.037-.207.083-.221.083-.5.083-.5-.037-.5-.083-.093-.083-.207-.083S40.4,75.081,40.4,75c0-.1-.166-.124-.994-.124s-.994.021-.994.124-.092.124-.331.124c-.182,0-.331-.04-.331-.089,0-.208-.251-.325-.7-.325-.254,0-.462.037-.462.083,0,.155-.209.084-.365-.124-.19-.253-.737-.3-.864-.068-.069.124-.1.114-.283-.083-.292-.315-.829-.324-.773-.014.046.251-.077.272-.2.035-.086-.161-.1-.163-.2-.029-.08.109-.171.131-.378.089-.366-.073-.676-.468-.367-.468.116,0,.116-.014.006-.124-.239-.239-.467-.157-.467.166,0,.267-.019.29-.251.29-.338,0-.4-.194-.129-.441a.883.883,0,0,0,.215-.251c0-.1-.814-.054-.863.051-.039.083-.058.083-.1,0-.027-.057-.194-.1-.373-.1-.233,0-.324-.035-.324-.124s-.087-.124-.29-.124c-.159,0-.29-.037-.29-.083s-.113-.083-.252-.083c-.186,0-.334-.086-.567-.331a1.121,1.121,0,0,0-.452-.331c-.075,0-.137-.037-.137-.083s-.13-.083-.29-.083-.29.037-.29.083-.056.083-.124.083-.124-.037-.124-.083-.093-.083-.207-.083-.207-.037-.207-.083-.093-.083-.207-.083-.207-.038-.207-.084a1.21,1.21,0,0,0-.609-.579c-.075,0-.136-.037-.136-.083s-.093-.083-.207-.083-.207-.047-.207-.124-.078-.124-.207-.124-.207-.037-.207-.083a.083.083,0,0,0-.083-.083c-.046,0-.083.084-.084.186a.678.678,0,0,1-.075.3.191.191,0,0,1-.338-.1c0-.078-.066-.1-.207-.076-.168.032-.207.007-.207-.136,0-.1.042-.175.094-.175.1,0,.313-.241.317-.358,0-.037-.137-.062-.308-.054-.694.032-.766.012-.766-.209,0-.262-.056-.26-.3.008-.189.2-.441.225-.441.036,0-.047-.077-.085-.172-.085a.366.366,0,0,1-.242-.662c.289-.208.21-.359-.162-.309-.225.03-.358.007-.424-.072A.372.372,0,0,0,22,69.252c-.086,0-.156-.037-.156-.083s-.056-.083-.124-.083a.125.125,0,0,1-.124-.124c0-.07-.074-.124-.172-.124-.183,0-.408-.179-.408-.325,0-.049-.056-.089-.124-.089s-.124-.037-.124-.083-.057-.083-.128-.083a1.148,1.148,0,0,1-.443-.331,1.121,1.121,0,0,0-.452-.331c-.075,0-.137-.037-.137-.083a.086.086,0,0,0-.089-.083.466.466,0,0,1-.325-.325.089.089,0,0,0-.089-.089c-.1,0-.325-.2-.325-.3s-.27-.278-.39-.281a10.2,10.2,0,0,1-1.6-1.576.083.083,0,0,0-.083-.082,1.878,1.878,0,0,1-.745-.828c0-.091-.04-.166-.089-.166-.1,0-.325-.2-.325-.29s-.229-.29-.325-.29a.089.089,0,0,1-.089-.089.466.466,0,0,0-.325-.325c-.049,0-.089-.077-.089-.172,0-.183-.179-.408-.325-.408a.1.1,0,0,1-.089-.106.381.381,0,0,0-.166-.225.4.4,0,0,1-.166-.269.223.223,0,0,0-.124-.2.2.2,0,0,1-.124-.163c0-.063-.037-.115-.083-.115s-.083-.074-.083-.166-.055-.166-.124-.166-.124-.04-.124-.089a.466.466,0,0,0-.325-.325c-.049,0-.089-.093-.089-.207s-.037-.207-.083-.207-.083-.093-.083-.207-.047-.207-.124-.207a.125.125,0,0,1-.124-.124c0-.068-.037-.124-.083-.124s-.083-.061-.083-.135a.625.625,0,0,0-.207-.327c-.169-.156-.207-.27-.207-.616,0-.471-.316-.908-.656-.908-.128,0-.172-.053-.172-.207,0-.114-.037-.207-.083-.207s-.083-.093-.083-.207-.047-.207-.124-.207-.124-.078-.124-.207-.037-.207-.083-.207-.083-.074-.083-.166-.037-.166-.083-.166-.083-.056-.083-.124.037-.124.083-.124c.108,0,.108-.306,0-.372-.046-.028-.083-.012-.083.036s-.13.088-.29.088c-.235,0-.29-.031-.29-.166s.055-.166.29-.166.29-.032.29-.161c0-.243-.156-.289-.325-.1s-.5.235-.5.067a.48.48,0,0,1,.174-.254c.1-.082.151-.171.123-.2s-.1.018-.161.1c-.147.2-.3.093-.3-.21,0-.223.024-.243.29-.243.2,0,.29-.037.29-.124,0-.068-.04-.124-.089-.124a.466.466,0,0,1-.325-.325c0-.049-.056-.089-.124-.089s-.124-.037-.124-.083.056-.083.124-.083c.087,0,.124-.087.124-.29,0-.329-.118-.37-.337-.117s-.451.176-.443-.133a.4.4,0,0,0-.1-.312c-.156-.094-.145-.555.014-.555a.129.129,0,0,0,.118-.145c0-.086-.023-.1-.048-.041-.093.229-.359.113-.359-.156A.482.482,0,0,0,8.2,51c-.187-.136-.012-.37.276-.37.217,0,.3-.53.1-.6-.061-.02-.092-.167-.08-.381.015-.25-.015-.361-.107-.4s-.128-.158-.128-.382a.618.618,0,0,0-.221-.538c-.2-.183-.206-.214-.083-.283.178-.1.19-.566.014-.566a.121.121,0,0,1-.124-.117.2.2,0,0,0-.1-.166c-.083-.038-.083-.058,0-.1.175-.082.129-.76-.066-.968-.143-.154-.181-.163-.245-.059-.121.195-.246,0-.3-.473-.053-.45.122-.893.381-.963.078-.021.055-.039-.058-.044-.2-.01-.3-.837-.1-.837a16.308,16.308,0,0,0,.083-2.607,16.308,16.308,0,0,0-.083-2.607c-.046,0-.083-.151-.083-.336,0-.2-.033-.316-.083-.285s-.083-.007-.083-.078a.127.127,0,0,1,.124-.129c.146,0,.168-.22.027-.267-.055-.018-.07-.078-.033-.137.05-.081.1-.075.208.026.2.177.254.089.254-.381,0-.3-.031-.4-.124-.4a.125.125,0,0,1-.124-.124c0-.068.04-.124.089-.124.285,0,.481-.907.222-1.028-.083-.038-.083-.058,0-.1a.2.2,0,0,0,.1-.166A.121.121,0,0,1,7.97,34.9c.087,0,.124-.087.124-.29,0-.254-.026-.29-.207-.29-.257,0-.278-.215-.028-.294.159-.05.163-.066.041-.134-.37-.207-.055-.925.369-.841.215.043.239.026.239-.169s-.032-.217-.29-.217c-.276,0-.29-.014-.29-.29,0-.234.031-.29.166-.29.092,0,.166.055.166.124a.125.125,0,0,0,.124.124c.068,0,.124.037.124.083a.083.083,0,0,0,.083.083c.123,0,.1-.8-.021-.862-.083-.038-.083-.058,0-.1.057-.027.1-.194.1-.372,0-.233.035-.324.124-.324s.124-.087.124-.29c0-.159.037-.29.083-.29s.083-.13.083-.29.037-.29.083-.29.083-.056.083-.124.04-.124.089-.124a.466.466,0,0,0,.325-.325c0-.049-.13-.089-.29-.089-.268,0-.29-.019-.29-.251,0-.348.214-.411.452-.133.256.3.376.275.376-.071,0-.2-.037-.29-.124-.29a.142.142,0,0,1-.124-.154c0-.12.046-.145.207-.114.222.042.258-.029.117-.228-.066-.094-.1-.1-.13-.021a.177.177,0,0,1-.151.1c-.163,0-.216-.222-.08-.335a.325.325,0,0,0,.119-.2c0-.257.271-.637.425-.6a.2.2,0,0,0,.242-.117.344.344,0,0,1,.289-.158c.163,0,.2-.042.2-.207,0-.114.037-.207.083-.207s.083-.056.083-.124S11,25.8,10.911,25.8c-.184,0-.219-.162-.066-.315.077-.077.077-.1,0-.1-.055,0-.1-.074-.1-.166s.052-.166.117-.166.1-.058.073-.165c-.073-.278.21-.308.435-.047.107.125.234.2.282.172.14-.086.1-.21-.065-.21a.523.523,0,0,1-.427-.441.131.131,0,0,1,.122-.138c.076,0,.1-.048.072-.129-.058-.152.229-.448.445-.457.087,0,.106-.024.045-.048-.123-.049-.141-.359-.021-.359.046,0,.083-.066.083-.147a.394.394,0,0,1,.682-.267c.259.241.312.208.312-.2,0-.247.04-.379.124-.411a.24.24,0,0,0,.124-.216c0-.092.037-.168.083-.168s.083-.052.083-.115a.2.2,0,0,1,.124-.163.208.208,0,0,0,.124-.18.942.942,0,0,1,.29-.406.937.937,0,0,0,.29-.408c0-.074.037-.135.083-.135s.083-.056.083-.124.04-.124.089-.124c.146,0,.325-.225.325-.408,0-.1.054-.172.124-.172s.124-.039.124-.086a2.7,2.7,0,0,1,.5-.569,2.073,2.073,0,0,0,.5-.617c0-.074.037-.134.083-.134s.083-.056.083-.124.04-.124.089-.124a.466.466,0,0,0,.325-.325.088.088,0,0,1,.087-.089,3.46,3.46,0,0,0,.907-.907.088.088,0,0,1,.089-.087.466.466,0,0,0,.325-.325c0-.049.056-.089.124-.089s.124-.037.124-.083.059-.083.131-.083c.2,0,.88-.718.847-.889a.173.173,0,0,0-.151-.145c-.092,0-.13-.121-.148-.476-.021-.4,0-.476.112-.476.088,0,.12-.044.089-.124s-.012-.124.033-.124.08-.13.08-.29c0-.2-.037-.29-.124-.29s-.124-.1-.124-.407c0-.244-.04-.42-.1-.44s-.092-.165-.08-.371c.016-.276-.018-.368-.19-.5a.539.539,0,0,1-.21-.339c0-.1-.037-.174-.083-.174s-.083-.169-.083-.375c0-.257-.039-.39-.124-.423s-.124-.166-.124-.42c0-.321-.02-.365-.145-.316a1.723,1.723,0,0,1-.221.071c-.082.016-.244-.6-.176-.673.023-.023-.02-.086-.095-.141a.207.207,0,0,1-.084-.236c.065-.17.306-.18.306-.012,0,.068.033.124.074.124s.1-.056.122-.124,0-.124-.074-.124-.122-.076-.122-.172a.472.472,0,0,0-.118-.29c-.134-.134-.627-.162-.627-.035M54.1,9.287c0,.108-.065.174-.186.191-.185.026-.27-.2-.128-.347a.2.2,0,0,1,.315.156m4.25,2.049c.019.1-.025.144-.144.144s-.172-.053-.172-.172c0-.212.274-.188.316.028M22.341,15.213c0,.052-.073.073-.166.049s-.145-.01-.119.032c.076.124.368.085.368-.049,0-.068-.019-.124-.041-.124s-.041.042-.041.092m20.872,4.5a.123.123,0,0,0,.124.121c.068,0,.124-.033.124-.074s-.056-.1-.124-.122-.124,0-.124.074m20.194.017c-.042.216-.316.24-.316.028,0-.118.053-.172.172-.172s.163.044.144.144M4.285,21.7c0,.069.074.124.166.124s.166.043.166.1.025.071.056.04c.052-.052-.244-.385-.342-.385-.025,0-.045.056-.045.124m-.248.414a.139.139,0,0,0,.149.124.4.4,0,0,1,.248.1c.158.158.115.027-.055-.169s-.342-.233-.342-.054m8.7.29c0,.175-.277.237-.373.083-.076-.124.03-.248.212-.248a.146.146,0,0,1,.161.166m53.092-.083c0,.046.056.083.124.083s.124-.037.124-.083-.056-.083-.124-.083-.124.037-.124.083m-61.955.207a.145.145,0,0,0,.159.124.225.225,0,0,1,.2.1c.025.062.045.045.048-.041a.129.129,0,0,0-.118-.145c-.068,0-.124-.037-.124-.083a.083.083,0,0,0-.083-.083c-.046,0-.083.056-.083.124m-.248.393c0,.057.092.109.2.115.174.01.187-.005.089-.1-.143-.143-.293-.149-.293-.012m8.235,1.185c.071.071.167.106.213.078.155-.1.085-.207-.13-.207-.193,0-.2.012-.083.13m-.359.222a.129.129,0,0,0,.118.145c.068,0,.124.037.124.083a.083.083,0,0,0,.083.083c.046,0,.083-.056.083-.124a.145.145,0,0,0-.159-.124.225.225,0,0,1-.2-.1c-.025-.062-.045-.045-.048.041m41.154.058c.152.152.164.153.208.014.07-.221.293-.183.293.049v.2l1.147-.012,1.147-.012-.038-.2c-.048-.25.086-.257.257-.013.109.156.131.163.134.041a.151.151,0,0,1,.149-.146,1.617,1.617,0,0,0,.33-.051c.252-.067.359.2.144.354-.127.093-.131.112-.022.112a.208.208,0,0,0,.179-.124c.06-.157.384-.164.384-.008,0,.075.058.1.165.073.2-.052.312.173.171.343-.115.139.113.461.327.461a.388.388,0,0,1,.248.166.382.382,0,0,0,.225.166.116.116,0,0,1,.106.124c0,.068.037.124.083.124s.083.069.083.154a.5.5,0,0,0,.207.309.517.517,0,0,1,.207.343c0,.1.04.187.089.187.146,0,.325.225.325.408,0,.094.037.172.083.172s.083.056.083.124-.037.124-.083.124-.083.072-.083.161a.276.276,0,0,0,.083.212c.046.028.083.012.083-.036s.13-.088.29-.088c.229,0,.29.033.29.157a.229.229,0,0,0,.124.2c.284.109.151.549-.166.549-.2,0-.29.037-.29.124,0,.068.037.124.083.124s.083.165.083.367c0,.46.11.534.359.244s.493-.226.454.112c-.022.19-.071.232-.3.254s-.269.061-.269.228c0,.217.078.256.222.112a.381.381,0,0,1,.282-.062c.244.035.342.781.114.868-.095.036-.116.114-.077.288.032.147.018.238-.037.238s-.089.22-.089.579c0,.331.035.579.083.579s.083.056.083.124a.125.125,0,0,0,.124.124c.1,0,.124.11.124.5,0,.3-.035.5-.089.5-.193,0-.325.25-.325.615,0,.208.037.378.083.378s.083.093.083.207-.037.207-.083.207-.083.126-.083.281c0,.173-.048.3-.124.329a.24.24,0,0,0-.124.216c0,.092-.037.168-.083.168s-.083.093-.083.207-.047.207-.124.207a.125.125,0,0,0-.124.124c0,.068-.037.124-.083.124s-.083.055-.083.121c0,.182-.467.624-.66.624-.093,0-.168.04-.168.089,0,.146-.225.325-.408.325-.1,0-.172.054-.172.124a.121.121,0,0,1-.117.124.2.2,0,0,0-.166.1c-.039.083-.058.083-.1,0-.1-.221-.614-.036-.614.222,0,.049-.056.089-.124.089s-.124.037-.124.083-.13.083-.29.083-.29.037-.29.083-.166.083-.369.083c-.263,0-.394.042-.456.145-.083.138-.091.138-.174,0-.059-.1-.191-.145-.409-.145-.392,0-.489.123-.257.324.266.231.23.5-.066.5-.244,0-.34-.119-.34-.421a.145.145,0,0,0-.166-.159c-.091,0-.166.037-.166.083s-.056.083-.124.083a.125.125,0,0,0-.124.124c0,.077-.078.124-.207.124s-.207.037-.207.083-.168.083-.373.083c-.276,0-.373.032-.373.124s-.1.124-.414.124c-.228,0-.414.037-.414.083s-.186.083-.414.083c-.451,0-.462.009-.314.246.131.209.061.268-.367.311a.867.867,0,0,0-.4.1.972.972,0,0,1-.447.074,1.447,1.447,0,0,0-.448.051c-.075.075-.266-.133-.266-.289a.2.2,0,0,0-.1-.181c-.133-.044-.021-.312.13-.312a.189.189,0,0,1,.159.145c.021.08.019-.041-.006-.269-.053-.494-.063-.51-.229-.371-.182.151-.286.017-.31-.4-.011-.19-.067-.364-.124-.386a.188.188,0,0,1-.1-.167.127.127,0,0,1,.1-.133c.083-.005.083-.015,0-.048-.151-.061-.127-.421.035-.511.1-.055.15-.223.176-.584.041-.563,0-.6-.287-.291-.247.266-.441.209-.441-.129,0-.232.022-.251.29-.251.322,0,.4-.228.168-.464a.394.394,0,0,1-.071-.374c.042-.209.01-.288-.181-.452-.128-.109-.189-.2-.136-.2s.1-.114.1-.254c0-.253-.157-.491-.325-.491-.049,0-.089-.093-.089-.207s-.037-.207-.083-.207-.083-.186-.083-.414c0-.313-.03-.414-.124-.414s-.124-.1-.124-.414c0-.228-.037-.414-.083-.414a.083.083,0,0,0-.083.083c0,.046-.075.083-.166.083-.141,0-.166-.055-.166-.375,0-.248-.04-.39-.118-.42-.176-.067-.125-.772.073-1,.087-.1.181-.167.21-.149.116.072-.026-.5-.148-.6-.09-.071-.125-.216-.112-.466s-.017-.376-.1-.409-.109-.134-.075-.383c.037-.274.02-.336-.09-.336s-.135-.084-.135-.384a.64.64,0,0,0-.207-.575.627.627,0,0,1-.207-.32c0-.07-.037-.128-.083-.128s-.083-.186-.083-.414c0-.313-.03-.414-.124-.414a.124.124,0,1,1,0-.248c.068,0,.124-.037.124-.083s.13-.083.29-.083c.2,0,.29-.037.29-.124s.1-.124.379-.124c.365,0,.615-.132.615-.325,0-.049.093-.089.207-.089s.207-.037.207-.083.186-.083.414-.083.414-.037.414-.083.169-.083.375-.083c.257,0,.39-.039.423-.124s.164-.124.407-.124a.705.705,0,0,0,.41-.083c.028-.046.012-.083-.036-.083-.3,0-.056-.317.283-.368a.976.976,0,0,0,.413-.124.718.718,0,0,1,.381-.073.942.942,0,0,0,.456-.1.27.27,0,0,1,.24-.05A.147.147,0,0,0,52.2,24.3c.079-.127.275-.092.449.082m18.806.046c0,.152-.044.207-.166.207-.162,0-.234-.235-.11-.359s.276-.043.276.152m-14.806.537c-.147.234-.135.249.187.249s.344-.046.175-.269c-.143-.188-.235-.183-.362.02m-45.471.47c-.144.058-.13.193.021.193a.125.125,0,0,0,.124-.124c0-.068-.009-.121-.021-.118l-.124.048M2.093,28.2c.076.123-.012.19-.171.129-.073-.028-.11-.089-.082-.134a.138.138,0,0,1,.252,0m58.265,1.07a.166.166,0,1,1-.166-.166.146.146,0,0,1,.166.166M47.023,32.213c0,.068.037.124.083.124s.083-.056.083-.124-.037-.124-.083-.124-.083.056-.083.124m-11.005,2.1a.171.171,0,0,0-.076.185c.026.078.068.056.137-.073.11-.206.1-.216-.061-.112M31.271,54.291c-.014.1-.082.186-.151.186s-.136-.084-.151-.186c-.02-.143.014-.186.151-.186s.171.043.151.186m-.192.393c0,.068-.084.136-.186.151-.143.02-.186-.014-.186-.151s.043-.171.186-.151c.1.014.186.082.186.151M2.794,55.719c0,.152-.044.207-.166.207s-.166-.055-.166-.207.044-.207.166-.207.166.055.166.207m68.5,1.117c0,.046.056.083.124.083s.124-.037.124-.083-.056-.083-.124-.083-.124.037-.124.083m-59.816,1.1c-.014.1-.082.186-.151.186s-.136-.084-.151-.186c-.02-.143.014-.186.151-.186s.171.043.151.186m67.684.234c0,.212-.274.188-.316-.028-.019-.1.025-.144.144-.144s.172.053.172.172m-67.421.16c0,.175-.277.237-.373.083-.076-.124.03-.248.212-.248a.146.146,0,0,1,.161.166m67.014.517a.129.129,0,0,0,.118.145c.068,0,.124.037.124.083a.083.083,0,0,0,.083.083c.046,0,.083-.056.083-.124A.145.145,0,0,0,79,58.906a.225.225,0,0,1-.2-.1c-.025-.062-.045-.045-.048.041m-.172.452c0,.072.239.272.325.272.182,0,.081-.231-.118-.269-.114-.022-.207-.023-.207,0m-.03.562c.026.068.081.124.122.124s.074-.056.074-.124a.123.123,0,0,0-.122-.124c-.074,0-.1.049-.074.124m-42.212.491c0,.134.046.213.124.213s.124-.04.124-.089a.412.412,0,0,0-.124-.213c-.11-.11-.124-.1-.124.089m41.413.627a.166.166,0,1,1-.166-.166.146.146,0,0,1,.166.166m-.58.993a.166.166,0,1,1-.166-.166.146.146,0,0,1,.166.166m-.248.414a.166.166,0,1,1-.166-.166.146.146,0,0,1,.166.166M61.849,68.134c0,.069.074.124.166.124s.166-.055.166-.124-.074-.124-.166-.124-.166.055-.166.124m-1.242.779c0,.143.1.338.175.338.041,0,.074-.093.074-.207s-.047-.207-.124-.207-.124.034-.124.076m-38.018.917a.166.166,0,1,1-.166-.166.146.146,0,0,1,.166.166M24.614,70.9c.07.114-.04.339-.165.339a.2.2,0,1,1,.165-.339m-10.37,1.91c-.133.212-.129.249.022.249.077,0,.124-.078.124-.207,0-.25-.014-.254-.146-.042m.891.084a.166.166,0,1,1-.166-.166.146.146,0,0,1,.166.166m13.749.166c0,.175-.277.237-.373.083-.076-.124.03-.248.212-.248a.146.146,0,0,1,.161.166m-7.123,4.759c0,.068-.037.124-.083.124a.083.083,0,0,0-.083.083c0,.046.056.083.124.083a.145.145,0,0,0,.124-.159.225.225,0,0,1,.1-.2c.062-.025.045-.044-.041-.048a.129.129,0,0,0-.145.118m.342.263c-.082.089-.088.148-.022.214.119.119.2.035.163-.172-.024-.144-.041-.149-.141-.042m.486.15c0,.068-.037.124-.083.124a.083.083,0,0,0-.083.083c0,.046.056.083.124.083a.145.145,0,0,0,.124-.159.225.225,0,0,1,.1-.2c.062-.025.045-.044-.041-.048a.129.129,0,0,0-.145.118m.663.579c0,.068.037.124.083.124s.083-.056.083-.124-.037-.124-.083-.124-.083.056-.083.124" transform="translate(0.133 0.137)" fill="#f2f2f2" fill-rule="evenodd"/>
</svg>
