<svg xmlns="http://www.w3.org/2000/svg" width="76.323" height="62" viewBox="0 0 76.323 62">
  <path id="twitter" d="M76.223,71.333a30.876,30.876,0,0,1-8.987,2.459,15.744,15.744,0,0,0,6.886-8.659,31.482,31.482,0,0,1-9.941,3.8A15.673,15.673,0,0,0,37.5,83.211,44.432,44.432,0,0,1,5.236,66.847a15.676,15.676,0,0,0,4.844,20.9,15.672,15.672,0,0,1-7.094-1.952v.194a15.656,15.656,0,0,0,12.564,15.351,15.682,15.682,0,0,1-4.128.551A16.1,16.1,0,0,1,8.47,101.6a15.7,15.7,0,0,0,14.621,10.88,31.4,31.4,0,0,1-19.45,6.707A31.127,31.127,0,0,1-.1,118.965,44.282,44.282,0,0,0,23.91,126c28.794,0,44.548-23.861,44.548-44.548,0-.686-.015-1.356-.045-2.027A31.513,31.513,0,0,0,76.223,71.333Z" transform="translate(0.1 -64)" fill="#f2f2f2"/>
</svg>
